<svg display="none" xmlns="http://www.w3.org/2000/svg">
  <symbol id="arrow" viewBox="0 0 14 8">
    <g>
      <path d="M6.99999 7.71302L13.01 1.70302L11.597 0.288025L6.99999 4.88802L2.40399 0.288025L0.98999 1.70202L6.99999 7.71302Z" fill="inherit"/>
    </g>
  </symbol>
  <symbol id="notification" viewBox="0 0 17 19">
    <g>
      <path d="M16.4315 14.0771C16.3554 13.681 15.9647 13.4201 15.5588 13.4943C15.1529 13.5686 14.8855 13.9498 14.9615 14.3458C15.018 14.6397 14.8856 14.8491 14.8017 14.9478C14.718 15.0462 14.5319 15.2113 14.2267 15.2113H2.8763C2.57103 15.2113 2.385 15.0462 2.30129 14.9478C2.21739 14.8491 2.085 14.6397 2.14146 14.3458C2.35355 13.2415 2.77913 12.5151 3.19068 11.8126C3.69051 10.9595 4.20735 10.0774 4.20735 8.71761V7.62318C4.20735 5.32243 6.12392 3.42524 8.48075 3.39186H8.62211C10.971 3.42516 12.8812 5.32236 12.8812 7.62322V8.71765C12.8812 9.87493 13.2691 10.6713 13.6328 11.3269C13.7681 11.5709 14.0254 11.7093 14.291 11.7093C14.4112 11.7093 14.5332 11.681 14.6463 11.6212C15.0095 11.4295 15.1445 10.9867 14.948 10.6323C14.5861 9.97996 14.3766 9.45752 14.3766 8.71765V7.62322C14.3766 6.12162 13.7806 4.70339 12.6982 3.62979C11.7706 2.7097 10.5796 2.13552 9.29201 1.97705V0.910711C9.29201 0.507742 8.95725 0.181091 8.54427 0.181091C8.1313 0.181091 7.79653 0.507742 7.79653 0.910711V1.9792C4.938 2.34109 2.71191 4.74782 2.71191 7.62322V8.71765C2.71191 9.68975 2.35026 10.307 1.89242 11.0884C1.44139 11.8583 0.930119 12.7309 0.671551 14.0771C0.548137 14.7197 0.722734 15.3767 1.15059 15.8797C1.57804 16.3823 2.20707 16.6705 2.8763 16.6705H6.31549C6.31549 17.8774 7.32179 18.8594 8.5587 18.8594C9.79561 18.8594 10.8019 17.8774 10.8019 16.6705H14.2267C14.8959 16.6705 15.5249 16.3823 15.9524 15.8797C16.3802 15.3768 16.5548 14.7197 16.4315 14.0771ZM8.5587 17.4001C8.1464 17.4001 7.81096 17.0728 7.81096 16.6705H9.30644C9.30644 17.0728 8.97104 17.4001 8.5587 17.4001Z" fill="inherit"/>
    </g>
  </symbol>
  <symbol id="sign-in" viewBox="0 0 18 18">
    <g>
      <path d="M16 18H2C0.89543 18 0 17.1046 0 16V12H2V16H16V2H2V6H0V2C0 0.89543 0.89543 0 2 0H16C17.1046 0 18 0.89543 18 2V16C18 17.1046 17.1046 18 16 18ZM8 13V10H0V8H8V5L13 9L8 13Z" fill="inherit"/>
    </g>
  </symbol>
  <symbol id="profile" viewBox="0 0 20 16">
    <g>
      <path d="M18 16H2C0.930516 16.032 0.0364164 15.1933 0 14.124V1.875C0.0364132 0.805809 0.930683 -0.0325688 2 2.24984e-06H18C19.0693 -0.0325688 19.9636 0.805809 20 1.875V14.125C19.963 15.1939 19.0691 16.032 18 16ZM2 2V13.989L18 14V2.011L2 2ZM11.43 12H4C4.07353 11.1721 4.46534 10.4049 5.093 9.86C5.79183 9.16672 6.73081 8.76921 7.715 8.75C8.69919 8.76921 9.63817 9.16672 10.337 9.86C10.9645 10.4051 11.3563 11.1721 11.43 12ZM16 11H13V9H16V11ZM7.715 8C7.17907 8.01863 6.65947 7.8139 6.28029 7.43471C5.9011 7.05553 5.69638 6.53593 5.715 6C5.69668 5.46416 5.9015 4.94474 6.28062 4.56562C6.65974 4.1865 7.17916 3.98168 7.715 4C8.25084 3.98168 8.77026 4.1865 9.14938 4.56562C9.5285 4.94474 9.73332 5.46416 9.715 6C9.73362 6.53593 9.5289 7.05553 9.14971 7.43471C8.77053 7.8139 8.25093 8.01863 7.715 8ZM16 7H12V5H16V7Z" fill="inherit"/>
    </g>
  </symbol>
  <symbol id="home" viewBox="0 0 20 19">
    <g>
      <path d="M17 19H3C2.44772 19 2 18.5523 2 18V9.99998H0L9.292 0.706983C9.47957 0.519206 9.73409 0.413696 9.9995 0.413696C10.2649 0.413696 10.5194 0.519206 10.707 0.706983L20 9.99998H18V18C18 18.5523 17.5523 19 17 19ZM8 12H12V17H16V8.82798L10 2.82798L4 8.82798V17H8V12Z" fill="inherit"/>
    </g>
  </symbol>
  <symbol id="folder" viewBox="0 0 20 18">
    <g>
      <path d="M18 18H2C0.89543 18 0 17.1046 0 16V2C0 0.89543 0.89543 0 2 0H8C8.26519 0 8.51951 0.105451 8.707 0.293L10.414 2H18C19.1046 2 20 2.89543 20 4V16C20 17.1046 19.1046 18 18 18ZM2 4V16H18V4H2Z" fill="inherit"/>
    </g>
  </symbol>
  <symbol id="folder-open" viewBox="0 0 20 17">
    <g>
      <path d="M16 17.0001H1C0.73459 17.0027 0.479352 16.898 0.292329 16.7097C0.105306 16.5214 0.00239561 16.2654 0.007 16H0V2C0 0.89543 0.89543 0 2 0H8C8.22336 0.00021299 8.44022 0.0751979 8.616 0.213L10.9 2H16C17.1046 2 18 2.89543 18 4V8H19C19.3361 8.00004 19.6498 8.16895 19.8348 8.44959C20.0198 8.73023 20.0514 9.08505 19.919 9.394L16.919 16.394C16.7614 16.7616 16.4 17.0001 16 17.0001ZM4.66 10L2.517 15H15.341L17.484 10H4.66ZM2 4V11.13L3.081 8.606C3.23858 8.2384 3.60004 8.00004 4 8H16V4H2Z" fill="inherit"/>
    </g>
  </symbol>
  <symbol id="calendar-edit" viewBox="0 0 18 20">
    <g>
      <path d="M16 20H2C0.89543 20 0 19.1046 0 18V4C0 2.89543 0.89543 2 2 2H4V0H6V2H12V0H14V2H16C17.1046 2 18 2.89543 18 4V18C18 19.1046 17.1046 20 16 20ZM2 8V18H16V8H2ZM2 4V6H16V4H2ZM6.8 17H5V15.2L9.2 11.01L11 12.81L6.8 17ZM11.625 12.182L9.825 10.382L11.2 9.013L13 10.813L11.63 12.183L11.625 12.182Z" fill="inherit"/>
    </g>
  </symbol>
  <symbol id="doughnut-chart" viewBox="0 0 20 20">
    <g>
      <path d="M10.0511 19.949C4.72623 19.9444 0.338902 15.7679 0.0723108 10.4497C-0.194281 5.13142 3.75338 0.537084 9.05114 0V4.04C6.04176 4.54858 3.89505 7.23721 4.06528 10.2845C4.23551 13.3318 6.66832 15.7646 9.71563 15.9349C12.7629 16.1051 15.4516 13.9584 15.9601 10.949H20.0001C19.4799 16.0555 15.1831 19.9421 10.0501 19.949H10.0511ZM20.0011 8.949H15.9611C15.5356 6.4347 13.5655 4.46506 11.0511 4.04V0C15.7782 0.483982 19.5156 4.22098 20.0001 8.948L20.0011 8.949Z" fill="inherit"/>
    </g>
  </symbol>
  <symbol id="calendar" viewBox="0 0 18 20">
    <g>
      <path d="M16 20H2C0.89543 20 0 19.1046 0 18V4C0 2.89543 0.89543 2 2 2H4V0H6V2H12V0H14V2H16C17.1046 2 18 2.89543 18 4V18C18 19.1046 17.1046 20 16 20ZM2 8V18H16V8H2ZM2 4V6H16V4H2ZM14 16H12V14H14V16ZM10 16H8V14H10V16ZM6 16H4V14H6V16ZM14 12H12V10H14V12ZM10 12H8V10H10V12ZM6 12H4V10H6V12Z" fill="inherit"/>
    </g>
  </symbol>
  <symbol id="mail" viewBox="0 0 20 16">
    <g>
      <path d="M18 16H2C0.89543 16 0 15.1046 0 14V1.913C0.0466084 0.842548 0.928533 -0.00101238 2 9.11911e-07H18C19.1046 9.11911e-07 20 0.895432 20 2V14C20 15.1046 19.1046 16 18 16ZM2 3.868V14H18V3.868L10 9.2L2 3.868ZM2.8 2L10 6.8L17.2 2H2.8Z" fill="inherit"/>
    </g>
  </symbol>
  <symbol id="settings" viewBox="0 0 20 20">
    <g>
      <path d="M11.82 20H8.18C7.71011 20 7.30355 19.673 7.20299 19.214L6.79599 17.33C6.25305 17.0921 5.73822 16.7946 5.26099 16.443L3.42399 17.028C2.976 17.1709 2.48898 16.9823 2.25399 16.575L0.429995 13.424C0.197583 13.0165 0.277653 12.5025 0.622995 12.185L2.04799 10.885C1.98319 10.2961 1.98319 9.70189 2.04799 9.113L0.622995 7.816C0.277145 7.49837 0.197042 6.98372 0.429995 6.576L2.24999 3.423C2.48498 3.0157 2.972 2.82714 3.41999 2.97L5.25699 3.555C5.50106 3.37416 5.75513 3.20722 6.01799 3.055C6.27033 2.91269 6.53003 2.78385 6.79599 2.669L7.20399 0.787C7.30406 0.327969 7.71018 0.000494393 8.18 0H11.82C12.2898 0.000494393 12.6959 0.327969 12.796 0.787L13.208 2.67C13.4888 2.79352 13.7622 2.93308 14.027 3.088C14.2739 3.23081 14.5126 3.38739 14.742 3.557L16.58 2.972C17.0277 2.82967 17.5141 3.01816 17.749 3.425L19.569 6.578C19.8014 6.98548 19.7213 7.49951 19.376 7.817L17.951 9.117C18.0158 9.70589 18.0158 10.3001 17.951 10.889L19.376 12.189C19.7213 12.5065 19.8014 13.0205 19.569 13.428L17.749 16.581C17.5141 16.9878 17.0277 17.1763 16.58 17.034L14.742 16.449C14.5094 16.6203 14.2677 16.7789 14.018 16.924C13.7558 17.0759 13.4854 17.2131 13.208 17.335L12.796 19.214C12.6955 19.6726 12.2895 19.9996 11.82 20ZM5.61999 14.229L6.43999 14.829C6.62485 14.9652 6.81751 15.0904 7.01699 15.204C7.2047 15.3127 7.39796 15.4115 7.59599 15.5L8.52899 15.909L8.98599 18H11.016L11.473 15.908L12.406 15.499C12.8133 15.3194 13.1999 15.0961 13.559 14.833L14.38 14.233L16.421 14.883L17.436 13.125L15.853 11.682L15.965 10.67C16.0142 10.2274 16.0142 9.78064 15.965 9.338L15.853 8.326L17.437 6.88L16.421 5.121L14.38 5.771L13.559 5.171C13.1998 4.90671 12.8132 4.68175 12.406 4.5L11.473 4.091L11.016 2H8.98599L8.52699 4.092L7.59599 4.5C7.3978 4.58704 7.20451 4.68486 7.01699 4.793C6.81873 4.90633 6.62709 5.03086 6.44299 5.166L5.62199 5.766L3.58199 5.116L2.56499 6.88L4.14799 8.321L4.036 9.334C3.9868 9.77664 3.9868 10.2234 4.036 10.666L4.14799 11.678L2.56499 13.121L3.57999 14.879L5.61999 14.229ZM9.99599 14C7.78686 14 5.99599 12.2091 5.99599 10C5.99599 7.79086 7.78686 6 9.99599 6C12.2051 6 13.996 7.79086 13.996 10C13.9932 12.208 12.204 13.9972 9.99599 14ZM9.99599 8C8.90339 8.00111 8.01388 8.87885 7.99823 9.97134C7.98257 11.0638 8.84656 11.9667 9.93868 11.9991C11.0308 12.0315 11.9468 11.1815 11.996 10.09V10.49V10C11.996 8.89543 11.1006 8 9.99599 8Z" fill="inherit"/>
    </g>
  </symbol>
  <symbol id="logo" viewBox="0 0 25 31">
    <g>
      <path id="logo-path" d="M2 28.8066V16.226M9 28.8066V21.2583M16 28.8066V9.51632M23 28.8066V2.80664" stroke="url(#paint_linear)" stroke-width="4" stroke-linecap="round"/>
      <defs>
        <linearGradient id="paint_linear" x1="12.5" y1="2.80664" x2="12.5" y2="28.8066" gradientUnits="userSpaceOnUse">
          <stop stop-color="#3493FF"/>
          <stop offset="0.523958" stop-color="#499BF8" stop-opacity="0.8"/>
          <stop offset="1" stop-color="#1963B7"/>
        </linearGradient>
      </defs>1
    </g>
  </symbol>
  <symbol id="circle" viewBox="0 0 19 20" fill="none">
    <g>
      <circle cx="9.5" cy="10" r="9" stroke="inherit"/>
    </g>
  </symbol>
  <symbol id="file-add" viewBox="0 0 16 20">
    <g>
      <path d="M14 20H2C0.89543 20 0 19.1046 0 18V1.99999C0 0.895417 0.89543 -1.35361e-05 2 -1.35361e-05H9C9.00896 -0.0011755 9.01804 -0.0011755 9.027 -1.35361e-05H9.033C9.04244 0.00294452 9.05216 0.00495445 9.062 0.00598646C9.15019 0.0116397 9.23726 0.0287846 9.321 0.0569865H9.336H9.351H9.363C9.38145 0.0699122 9.39884 0.0842913 9.415 0.0999865C9.52394 0.14841 9.62321 0.216171 9.708 0.299986L15.708 6.29999C15.7918 6.38477 15.8596 6.48404 15.908 6.59299C15.917 6.61499 15.924 6.63599 15.931 6.65899V6.67299V6.68699C15.9589 6.77038 15.9754 6.85717 15.98 6.94499C15.9809 6.95495 15.9832 6.96472 15.987 6.97399V6.97999C15.9921 6.98614 15.9964 6.99285 16 6.99999V18C16 19.1046 15.1046 20 14 20ZM2 1.99999V18H14V7.99999H9C8.44772 7.99999 8 7.55227 8 6.99999V1.99999H2ZM10 3.41399V5.99999H12.586L10 3.41399ZM9 16H7V14H5V12H7V9.99999H9V12H11V14H9V16Z" fill="inherit"/>
    </g>
  </symbol>
  <symbol id="folder-add" viewBox="0 0 20 18">
    <g>
      <path d="M18 18H2C0.89543 18 0 17.1046 0 16V2C0 0.89543 0.89543 0 2 0H8C8.26519 0 8.51951 0.105451 8.707 0.293L10.414 2H18C19.1046 2 20 2.89543 20 4V16C20 17.1046 19.1046 18 18 18ZM2 4V16H18V4H2ZM11 14H9V11H6V9H9V6H11V9H14V11H11V14Z" fill="inherit"/>
    </g>
  </symbol>
  <symbol id="user-say" viewBox="0 0 19 17">
    <g>
      <path d="M2 17.001H0C0 13.6873 2.68629 11.001 6 11.001C9.31371 11.001 12 13.6873 12 17.001H10C10 14.7918 8.20914 13.001 6 13.001C3.79086 13.001 2 14.7918 2 17.001ZM16.364 13.364L14.95 11.95C16.2629 10.6372 17.0005 8.85663 17.0005 6.99999C17.0005 5.14335 16.2629 3.36276 14.95 2.04999L16.364 0.635986C19.8781 4.1506 19.8781 9.84837 16.364 13.363V13.364ZM13.535 10.536L12.121 9.11999C13.2908 7.94872 13.2908 6.05126 12.121 4.87999L13.535 3.46299C15.4876 5.4156 15.4876 8.58137 13.535 10.534V10.536ZM6 9.99999C3.79086 9.99999 2 8.20913 2 5.99999C2 3.79085 3.79086 1.99999 6 1.99999C8.20914 1.99999 10 3.79085 10 5.99999C10 7.06085 9.57857 8.07827 8.82843 8.82841C8.07828 9.57856 7.06087 9.99999 6 9.99999ZM6 3.99999C4.9074 4.00109 4.01789 4.87883 4.00223 5.97133C3.98658 7.06382 4.85057 7.96669 5.94269 7.9991C7.03481 8.03152 7.95083 7.18148 8 6.08999V6.48999V5.99999C8 4.89542 7.10457 3.99999 6 3.99999Z" fill="inherit"/>
    </g>
  </symbol>
  <symbol id="task-add" viewBox="0 0 21 18">
    <g>
      <path d="M10 7.00001V18C9.00336 18 4.62034 18 1.99915 18C0.894584 18 0 17.1046 0 16V2C0 0.89543 0.89543 -2.12143e-07 2 0L16 2.68883e-06C17.1046 2.90097e-06 18 0.895432 18 2V7.00001H10ZM8 7.00001H2V11H8V7.00001ZM8 16V13H2V16H8ZM10 2.00001V5.00001H16V2.00001H10ZM8 2.00001H2V5.00001H8V2.00001Z" fill="inherit"/>
      <path d="M16 18V15H13V13H16V10H18V13H21V15H18V18H16Z" fill="inherit"/>
    </g>
  </symbol>
  <symbol id="notification-with-circle" viewBox="0 0 16 20">
    <g>
      <path d="M8 20C6.89543 20 6 19.1046 6 18H10C10 19.1046 9.10457 20 8 20ZM16 17H0V15L2 14V8.5C2 5.038 3.421 2.793 6 2.18V0H9C8.34795 0.863937 7.99672 1.91762 8 3C7.99996 3.25138 8.01868 3.50241 8.056 3.751H8C6.77986 3.67197 5.60301 4.21765 4.875 5.2C4.25255 6.18456 3.94714 7.33638 4 8.5V15H12V8.5C12 8.289 11.993 8.086 11.979 7.9C12.6405 8.03664 13.3226 8.03902 13.985 7.907C13.996 8.118 14 8.319 14 8.507V14L16 15V17ZM13 6C12.3958 6.00073 11.8055 5.81839 11.307 5.477C10.1288 4.67158 9.68108 3.14761 10.2365 1.8329C10.7919 0.518203 12.1966 -0.223218 13.5954 0.0600373C14.9942 0.343292 15.9998 1.5728 16 3C16 4.65685 14.6569 6 13 6Z" fill="inherit"/>
    </g>
  </symbol>
  <symbol id="arrow-caret" viewBox="0 0 6 10">
    <g>
      <path d="M0.5 5L5.5 10V0L0.5 5Z" fill="inherit"/>
    </g>
  </symbol>
  <symbol id="edit" viewBox="0 0 17 17">
    <g>
      <path d="M1.05117 16.8651C0.794032 16.8646 0.548902 16.7562 0.375589 16.5662C0.199081 16.3778 0.111373 16.123 0.134506 15.8659L0.359089 13.3964L10.7339 3.02524L13.9762 6.26657L3.60409 16.6368L1.13459 16.8614C1.10617 16.8642 1.07776 16.8651 1.05117 16.8651ZM14.6233 5.61849L11.382 2.37716L13.3263 0.432909C13.4982 0.26078 13.7315 0.164062 13.9748 0.164062C14.2181 0.164062 14.4514 0.26078 14.6233 0.432909L16.5676 2.37716C16.7397 2.5491 16.8364 2.78241 16.8364 3.0257C16.8364 3.26899 16.7397 3.5023 16.5676 3.67424L14.6243 5.61757L14.6233 5.61849Z" fill="inherit"/>
    </g>
  </symbol>
  <symbol id="error" viewBox="0 0 18 18">
    <g>
      <path d="M9 16.5C4.85786 16.5 1.5 13.1421 1.5 9C1.5 4.85786 4.85786 1.5 9 1.5C13.1421 1.5 16.5 4.85786 16.5 9C16.4955 13.1403 13.1403 16.4955 9 16.5ZM8.25 11.25V12.75H9.75V11.25H8.25ZM8.25 5.25V9.75H9.75V5.25H8.25Z" fill="inherit"/>
    </g>
  </symbol>
  <symbol id="pdf" viewBox="0 0 12 16">
    <g>
      <path d="M10.5 15.5H1.5C0.671573 15.5 0 14.8285 0 14V2.00004C0 1.17162 0.671573 0.500043 1.5 0.500043H6.75C6.75672 0.499172 6.76353 0.499172 6.77025 0.500043H6.77475C6.78183 0.502262 6.78912 0.503769 6.7965 0.504543C6.86264 0.508783 6.92794 0.521642 6.99075 0.542793H7.002H7.01325H7.02225C7.03609 0.552488 7.04913 0.563272 7.06125 0.575043C7.14296 0.611361 7.21741 0.662182 7.281 0.725043L11.781 5.22504C11.8439 5.28863 11.8947 5.36309 11.931 5.44479C11.9377 5.46129 11.943 5.47704 11.9482 5.49429L11.9557 5.51529C11.9767 5.57784 11.9891 5.64293 11.9925 5.70879C11.9932 5.71627 11.9949 5.7236 11.9977 5.73054V5.73504C11.999 5.73996 11.9997 5.74498 12 5.75004V14C12 14.3979 11.842 14.7794 11.5607 15.0607C11.2794 15.342 10.8978 15.5 10.5 15.5ZM7.818 9.50004V13.25H8.523V11.72H9.618V11.0915H8.523V10.1308H9.75V9.50004H7.818ZM5.043 9.50004V13.25H5.9475C6.32695 13.2687 6.69437 13.1142 6.9465 12.83C7.20517 12.5 7.33475 12.087 7.311 11.6683V11.0608C7.32838 10.6465 7.19517 10.24 6.936 9.91629C6.69198 9.63852 6.3357 9.4856 5.96625 9.50004H5.043ZM2.25 9.50004V13.25H2.955V11.9308H3.4245C3.73801 11.9481 4.04424 11.8321 4.2675 11.6113C4.48056 11.3731 4.59106 11.0605 4.575 10.7413C4.58892 10.4145 4.47851 10.0945 4.266 9.84579C4.05579 9.61269 3.75232 9.48585 3.43875 9.50004H2.25ZM6.75 2.00004V5.75004H10.5L6.75 2.00004ZM5.9595 12.6215H5.748V10.1308H6.0045C6.18664 10.1201 6.36177 10.2025 6.4695 10.3498C6.57945 10.5773 6.62658 10.83 6.606 11.0818V11.7335C6.62247 11.9734 6.57045 12.2129 6.456 12.4243C6.33307 12.5678 6.14738 12.6416 5.9595 12.6215ZM3.43875 11.3H2.95425V10.1308H3.4455C3.56814 10.1321 3.68147 10.1964 3.7455 10.301C3.82667 10.435 3.86585 10.5901 3.858 10.7465C3.8674 10.8924 3.82867 11.0373 3.74775 11.159C3.67316 11.2527 3.55835 11.3051 3.43875 11.3Z" fill="#18171C"/>
    </g>
  </symbol>
  <symbol id="filter" viewBox="0 0 17 14">
    <g>
      <path d="M13.9369 0H3.06315C2.56351 0 2.3114 0.606234 2.66542 0.960258L7 5.29549V10.125C7 10.3085 7.08955 10.4805 7.23993 10.5858L9.11493 11.8979C9.48484 12.1568 10 11.8944 10 11.437V5.29549L14.3347 0.960258C14.688 0.606937 14.4376 0 13.9369 0Z" fill="inherit"/>
    </g>
  </symbol>
  <symbol id="kanban" viewBox="0 0 16 16">
    <g>
      <path d="M13.8333 15.5H2.16667C1.24619 15.5 0.5 14.7538 0.5 13.8333V2.16667C0.5 1.24619 1.24619 0.5 2.16667 0.5H13.8333C14.7538 0.5 15.5 1.24619 15.5 2.16667V13.8333C15.5 14.7538 14.7538 15.5 13.8333 15.5ZM11.3333 2.16667V13.8333H13.8333V2.16667H11.3333ZM2.16667 2.16667V13.8333H9.66667V2.16667H2.16667Z" fill="inherit"/>
    </g>
  </symbol>
  <symbol id="calendar-icon" viewBox="0 0 16 18">
    <g>
      <path d="M13.8333 17.3346H2.16667C1.24619 17.3346 0.5 16.5884 0.5 15.668V4.0013C0.5 3.08083 1.24619 2.33464 2.16667 2.33464H3.83333V0.667969H5.5V2.33464H10.5V0.667969H12.1667V2.33464H13.8333C14.7538 2.33464 15.5 3.08083 15.5 4.0013V15.668C15.5 16.5884 14.7538 17.3346 13.8333 17.3346ZM2.16667 7.33464V15.668H13.8333V7.33464H2.16667ZM2.16667 4.0013V5.66797H13.8333V4.0013H2.16667Z" fill="inherit"/>
    </g>
  </symbol>
  <symbol id="chart" viewBox="0 0 18 18">
    <g>
      <path d="M9.0013 17.3346C4.39893 17.3346 0.667969 13.6037 0.667969 9.0013C0.667969 4.39893 4.39893 0.667969 9.0013 0.667969C13.6037 0.667969 17.3346 4.39893 17.3346 9.0013C17.3296 13.6016 13.6016 17.3296 9.0013 17.3346ZM8.16797 2.3863C5.43967 2.73133 3.2032 4.71621 2.53656 7.38421C1.86992 10.0522 2.90993 12.8558 5.15529 14.4435C7.40066 16.0313 10.3906 16.0774 12.6838 14.5596L12.6005 14.6188L12.6788 14.5646L12.728 14.5305L12.7813 14.493L12.7946 14.4838L12.8021 14.478L8.5288 10.203C8.29661 9.9667 8.16696 9.6484 8.16797 9.31714V2.3863ZM10.5255 9.83464L14.048 13.3571L14.0538 13.3505L14.058 13.3455L14.0496 13.3546C14.9093 12.3626 15.4546 11.1373 15.6163 9.83464H10.5255ZM9.83464 2.3863V8.16797H15.6163C15.2359 5.14639 12.8562 2.76673 9.83464 2.3863Z" fill="inherit"/>
    </g>
  </symbol>
  <symbol id="list" viewBox="0 0 16 14">
    <g>
      <path d="M7.16667 0.332031H15.5V1.9987H7.16667V0.332031ZM7.16667 3.66536H12.1667V5.33203H7.16667V3.66536ZM7.16667 8.66536H15.5V10.332H7.16667V8.66536ZM7.16667 11.9987H12.1667V13.6654H7.16667V11.9987ZM0.5 0.332031H5.5V5.33203H0.5V0.332031ZM2.16667 1.9987V3.66536H3.83333V1.9987H2.16667ZM0.5 8.66536H5.5V13.6654H0.5V8.66536ZM2.16667 10.332V11.9987H3.83333V10.332H2.16667Z" fill="inherit"/>
    </g>
  </symbol>
  <symbol id="subordinates" viewBox="0 0 18 16">
    <g>
      <path d="M6.5013 0.5C4.20012 0.5 2.33464 2.36548 2.33464 4.66667C2.33464 6.96785 4.20012 8.83333 6.5013 8.83333C8.80249 8.83333 10.668 6.96785 10.668 4.66667C10.668 2.36548 8.80249 0.5 6.5013 0.5ZM4.0013 4.66667C4.0013 3.28595 5.12059 2.16667 6.5013 2.16667C7.88201 2.16667 9.0013 3.28595 9.0013 4.66667C9.0013 6.04738 7.88201 7.16667 6.5013 7.16667C5.12059 7.16667 4.0013 6.04738 4.0013 4.66667Z" fill="inherit"/>
      <path d="M13.0917 4.84857C12.8572 4.72903 12.5978 4.66672 12.3346 4.66672V3.00005C12.861 3.00005 13.3798 3.12464 13.8487 3.36371C13.9004 3.39004 13.9512 3.41768 14.0013 3.44658C14.4058 3.68011 14.7573 3.99641 15.0324 4.37546C15.3415 4.80143 15.5454 5.29456 15.6273 5.81447C15.7093 6.33439 15.6669 6.86631 15.5037 7.36671C15.3406 7.86711 15.0612 8.32176 14.6886 8.69344C14.3159 9.06513 13.8605 9.34328 13.3597 9.50514C12.914 9.64917 12.4437 9.69747 11.9793 9.64767C11.9218 9.64151 11.8644 9.63384 11.8072 9.62467C11.2878 9.54143 10.7955 9.33648 10.3706 9.02658L10.3697 9.02594L11.3522 7.67964C11.5647 7.83476 11.8111 7.93731 12.0709 7.97895C12.3307 8.02059 12.5968 8.00011 12.8472 7.91919C13.0976 7.83826 13.3252 7.69919 13.5116 7.51335C13.6979 7.32752 13.8376 7.1002 13.9191 6.85001C14.0007 6.59981 14.0219 6.33386 13.9809 6.07391C13.94 5.81396 13.838 5.56741 13.6835 5.35443C13.5289 5.14145 13.3261 4.9681 13.0917 4.84857Z" fill="inherit"/>
      <path d="M15.6664 15.5C15.6664 15.0625 15.5802 14.6292 15.4128 14.225C15.2453 13.8208 14.9999 13.4535 14.6905 13.1441C14.3812 12.8347 14.0139 12.5893 13.6096 12.4219C13.2054 12.2544 12.7722 12.1682 12.3346 12.1682V10.5C12.903 10.5 13.4666 10.5969 14.0013 10.786C14.0843 10.8153 14.1666 10.8468 14.2481 10.8806C14.8547 11.1319 15.4059 11.5002 15.8702 11.9645C16.3345 12.4288 16.7028 12.98 16.954 13.5866C16.9878 13.6681 17.0193 13.7504 17.0487 13.8333C17.2377 14.368 17.3346 14.9316 17.3346 15.5H15.6664Z" fill="inherit"/>
      <path d="M12.3346 15.5H10.668C10.668 13.1988 8.80249 11.3333 6.5013 11.3333C4.20012 11.3333 2.33464 13.1988 2.33464 15.5H0.667969C0.667969 12.2783 3.27964 9.66667 6.5013 9.66667C9.72296 9.66667 12.3346 12.2783 12.3346 15.5Z" fill="inherit"/>
    </g>
  </symbol>
  <symbol id="search" viewBox="0 0 18 17">
    <g>
      <path d="M16.1838 16.6076L10.4688 10.8916C7.92649 12.6991 4.42325 12.257 2.40969 9.87456C0.396125 7.49214 0.543975 3.96422 2.74982 1.75863C4.95508 -0.447923 8.48334 -0.596414 10.8662 1.41705C13.2491 3.4305 13.6914 6.93408 11.8838 9.47663L17.5988 15.1926L16.1848 16.6066L16.1838 16.6076ZM6.99182 2.00062C5.09552 2.00019 3.45951 3.33131 3.07429 5.18807C2.68907 7.04482 3.66053 8.9169 5.40049 9.67087C7.14046 10.4248 9.17072 9.85346 10.2621 8.30268C11.3534 6.7519 11.2059 4.64795 9.90882 3.26463L10.5138 3.86463L9.83182 3.18463L9.81982 3.17263C9.0716 2.41981 8.05321 1.99776 6.99182 2.00062Z" fill="inherit"/>
    </g>
  </symbol>
  <symbol id="other" viewBox="0 0 13 4">
    <g>
      <path fill-rule="evenodd" clip-rule="evenodd" d="M1.84115 3.33464C1.10477 3.33464 0.507812 2.73768 0.507812 2.0013C0.507812 1.26492 1.10477 0.667969 1.84115 0.667969C2.57753 0.667969 3.17448 1.26492 3.17448 2.0013C3.17448 2.73768 2.57753 3.33464 1.84115 3.33464ZM6.50911 3.33464C5.77273 3.33464 5.17578 2.73768 5.17578 2.0013C5.17578 1.26492 5.77273 0.667969 6.50911 0.667969C7.24549 0.667969 7.84245 1.26492 7.84245 2.0013C7.84245 2.73768 7.24549 3.33464 6.50911 3.33464ZM9.83984 2.0013C9.83984 2.73768 10.4368 3.33464 11.1732 3.33464C11.9096 3.33464 12.5065 2.73768 12.5065 2.0013C12.5065 1.26492 11.9096 0.667969 11.1732 0.667969C10.4368 0.667969 9.83984 1.26492 9.83984 2.0013Z" fill="inherit"/>
    </g>
  </symbol>
  <symbol id="swirling-arrow" viewBox="0 0 14 16">
    <g>
      <path d="M13.5089 0H11.5089V2.55709C10.3189 1.622 8.81835 1.0643 7.1875 1.0643C3.32151 1.0643 0.1875 4.19831 0.1875 8.0643C0.1875 11.9303 3.32151 15.0643 7.1875 15.0643C9.33799 15.0643 11.262 14.0946 12.5461 12.5685L10.9267 11.3837C10.0108 12.4147 8.67502 13.0643 7.1875 13.0643C4.42608 13.0643 2.1875 10.8257 2.1875 8.0643C2.1875 5.30288 4.42608 3.0643 7.1875 3.0643C8.27434 3.0643 9.28019 3.41107 10.1004 4L7.50894 4V6H13.5089V0Z" fill="#252733"/>
    </g>
  </symbol>
  <symbol id="plus" viewBox="0 0 14 14">
    <g>
      <path d="M8 8V14H6V8H0V6H6V0H8V6H14V8H8Z" fill="inherit"/>
    </g>
  </symbol>
  <symbol id="plus" viewBox="0 0 16 15">
    <g>
      <path d="M6.60826 2.97175C7.19822 1.501 7.49319 0.765625 8.00044 0.765625C8.50768 0.765625 8.80266 1.501 9.39261 2.97175L9.42008 3.04024C9.75338 3.87114 9.92002 4.28659 10.2597 4.5391C10.5993 4.79162 11.0451 4.83155 11.9368 4.91141L12.098 4.92584C13.5574 5.05654 14.2871 5.12189 14.4432 5.58613C14.5993 6.05036 14.0575 6.54337 12.9737 7.52939L12.612 7.85847C12.0633 8.35761 11.789 8.60718 11.6612 8.93427C11.6373 8.99529 11.6175 9.0578 11.6018 9.12141C11.5178 9.4624 11.5981 9.82445 11.7587 10.5486L11.8088 10.7739C12.104 12.1047 12.2516 12.7701 11.9939 13.0571C11.8976 13.1643 11.7724 13.2415 11.6333 13.2795C11.2612 13.381 10.7328 12.9505 9.67609 12.0894C8.98221 11.524 8.63527 11.2413 8.23694 11.1777C8.08027 11.1527 7.92061 11.1527 7.76393 11.1777C7.3656 11.2413 7.01866 11.524 6.32478 12.0894C5.26807 12.9505 4.73971 13.381 4.36756 13.2795C4.2285 13.2415 4.10331 13.1643 4.007 13.0571C3.74924 12.7701 3.89687 12.1047 4.19212 10.7739L4.24213 10.5486C4.40278 9.82445 4.48311 9.4624 4.39907 9.12141C4.38339 9.0578 4.36357 8.99529 4.33972 8.93427C4.21186 8.60718 3.93755 8.35761 3.38892 7.85847L3.02721 7.52939C1.94342 6.54337 1.40153 6.05036 1.55767 5.58613C1.7138 5.12189 2.44348 5.05654 3.90284 4.92584L4.06404 4.91141C4.95573 4.83155 5.40157 4.79162 5.74121 4.5391C6.08085 4.28659 6.2475 3.87114 6.58079 3.04023L6.60826 2.97175Z" fill="inherit"/>
      <path d="M4.06404 4.91141L3.99714 4.1644V4.1644L4.06404 4.91141ZM6.58079 3.04023L5.8847 2.76102L5.8847 2.76102L6.58079 3.04023ZM3.02721 7.52939L2.52249 8.08415H2.52249L3.02721 7.52939ZM3.90284 4.92584L3.96974 5.67285L3.96974 5.67285L3.90284 4.92584ZM4.24213 10.5486L3.50993 10.3861L3.50993 10.3861L4.24213 10.5486ZM4.39907 9.12141L3.67086 9.30088L4.39907 9.12141ZM3.38892 7.85847L3.89363 7.30371L3.89363 7.30371L3.38892 7.85847ZM4.33972 8.93427L5.03825 8.66123V8.66123L4.33972 8.93427ZM6.32478 12.0894L6.79855 12.6708L6.32478 12.0894ZM4.36756 13.2795L4.17013 14.003L4.36756 13.2795ZM4.19212 10.7739L4.92431 10.9364H4.92432L4.19212 10.7739ZM4.007 13.0571L3.44901 13.5582L4.007 13.0571ZM9.67609 12.0894L9.20232 12.6708L9.67609 12.0894ZM8.23694 11.1777L8.11869 11.9183L8.23694 11.1777ZM7.76393 11.1777L7.88218 11.9183L7.76393 11.1777ZM11.8088 10.7739L11.0766 10.9364L11.0766 10.9364L11.8088 10.7739ZM11.9939 13.0571L12.5519 13.5582L11.9939 13.0571ZM11.6333 13.2795L11.8307 14.003L11.6333 13.2795ZM12.612 7.85847L13.1167 8.41323L12.612 7.85847ZM11.6612 8.93427L12.3597 9.20732L11.6612 8.93427ZM11.7587 10.5486L12.4909 10.3861V10.3861L11.7587 10.5486ZM11.6018 9.12141L12.33 9.30088L11.6018 9.12141ZM12.098 4.92584L12.0311 5.67285L12.098 4.92584ZM12.9737 7.52939L12.469 6.97463L12.9737 7.52939ZM9.42008 3.04024L8.724 3.31945V3.31945L9.42008 3.04024ZM11.9368 4.91141L12.0037 4.1644L11.9368 4.91141ZM9.39261 2.97175L10.0887 2.69253V2.69253L9.39261 2.97175ZM6.60826 2.97175L7.30435 3.25097V3.25097L6.60826 2.97175ZM8.00044 0.765625V1.51562V0.765625ZM8.69652 3.25097L8.724 3.31945L10.1162 2.76102L10.0887 2.69253L8.69652 3.25097ZM11.8699 5.65842L12.0311 5.67285L12.1649 4.17883L12.0037 4.1644L11.8699 5.65842ZM12.469 6.97463L12.1072 7.30371L13.1167 8.41323L13.4784 8.08415L12.469 6.97463ZM11.0266 10.711L11.0766 10.9364L12.5409 10.6115L12.4909 10.3861L11.0266 10.711ZM4.92432 10.9364L4.97432 10.711L3.50993 10.3861L3.45993 10.6115L4.92432 10.9364ZM3.89363 7.30371L3.53192 6.97463L2.52249 8.08415L2.8842 8.41323L3.89363 7.30371ZM3.96974 5.67285L4.13094 5.65842L3.99714 4.1644L3.83594 4.17883L3.96974 5.67285ZM7.27688 3.31945L7.30435 3.25097L5.91218 2.69253L5.8847 2.76102L7.27688 3.31945ZM4.13094 5.65842C4.56155 5.61985 4.9407 5.58681 5.25261 5.52625C5.58147 5.46239 5.897 5.35786 6.1887 5.14098L5.29372 3.93723C5.24579 3.97287 5.16857 4.01455 4.96669 4.05375C4.74784 4.09625 4.45823 4.1231 3.99714 4.1644L4.13094 5.65842ZM5.8847 2.76102C5.71236 3.19067 5.60323 3.46028 5.4995 3.65761C5.40382 3.83965 5.34166 3.90159 5.29372 3.93723L6.1887 5.14098C6.4804 4.9241 6.67139 4.65206 6.82726 4.35552C6.97509 4.07427 7.11593 3.7207 7.27688 3.31945L5.8847 2.76102ZM3.53192 6.97463C2.97129 6.46457 2.61469 6.13757 2.40582 5.88459C2.18355 5.61537 2.32368 5.66125 2.26854 5.82521L0.846793 5.34704C0.635515 5.97524 0.968527 6.49974 1.24911 6.83959C1.54311 7.19568 1.99934 7.60819 2.52249 8.08415L3.53192 6.97463ZM3.83594 4.17883C3.1315 4.24192 2.51871 4.2949 2.06928 4.40096C1.64035 4.50218 1.05807 4.71884 0.846793 5.34704L2.26854 5.82521C2.21339 5.98917 2.07402 5.94104 2.4138 5.86086C2.73309 5.78551 3.21482 5.74046 3.96974 5.67285L3.83594 4.17883ZM4.97432 10.711C5.05189 10.3614 5.12094 10.0532 5.15585 9.78991C5.19257 9.51301 5.19961 9.2354 5.12728 8.94194L3.67086 9.30088C3.68258 9.34841 3.69147 9.42233 3.66887 9.59272C3.64446 9.77676 3.59302 10.0116 3.50993 10.3861L4.97432 10.711ZM2.8842 8.41323C3.16794 8.67137 3.34534 8.83365 3.47136 8.96998C3.58803 9.0962 3.62336 9.16172 3.64119 9.20732L5.03825 8.66123C4.92822 8.37973 4.76247 8.15692 4.57286 7.9518C4.3926 7.75678 4.15853 7.5447 3.89363 7.30371L2.8842 8.41323ZM5.12728 8.94194C5.10377 8.84652 5.07402 8.75275 5.03825 8.66123L3.64119 9.20732C3.65311 9.23782 3.66302 9.26908 3.67086 9.30088L5.12728 8.94194ZM5.85101 11.508C5.30828 11.9503 4.94895 12.2417 4.67984 12.4172C4.36796 12.6205 4.4016 12.5113 4.56499 12.5559L4.17013 14.003C4.70567 14.1492 5.18957 13.8755 5.49908 13.6737C5.85136 13.444 6.28458 13.0897 6.79855 12.6708L5.85101 11.508ZM3.45993 10.6115C3.31632 11.2588 3.19407 11.8049 3.14691 12.2228C3.10547 12.59 3.07808 13.1452 3.44901 13.5582L4.56499 12.5559C4.67815 12.6819 4.5957 12.761 4.63745 12.391C4.67347 12.0718 4.77267 11.6199 4.92431 10.9364L3.45993 10.6115ZM4.56499 12.5559H4.56499L3.44901 13.5582C3.64164 13.7727 3.892 13.9271 4.17013 14.003L4.56499 12.5559ZM10.1499 11.508C9.81394 11.2343 9.52215 10.9955 9.2626 10.8219C8.99191 10.6409 8.70223 10.4925 8.3552 10.4371L8.11869 11.9183C8.16999 11.9265 8.25294 11.9512 8.42877 12.0688C8.61574 12.1939 8.84436 12.3791 9.20232 12.6708L10.1499 11.508ZM6.79855 12.6708C7.15652 12.3791 7.38513 12.1939 7.57211 12.0688C7.74793 11.9512 7.83089 11.9265 7.88218 11.9183L7.64567 10.4371C7.29864 10.4925 7.00896 10.6409 6.73827 10.8219C6.47872 10.9955 6.18693 11.2343 5.85101 11.508L6.79855 12.6708ZM8.3552 10.4371C8.12018 10.3996 7.88069 10.3996 7.64567 10.4371L7.88218 11.9183C7.96052 11.9058 8.04035 11.9058 8.11869 11.9183L8.3552 10.4371ZM11.0766 10.9364C11.2282 11.6199 11.3274 12.0718 11.3634 12.391C11.4052 12.761 11.3227 12.6819 11.4359 12.5559L12.5519 13.5582C12.9228 13.1452 12.8954 12.59 12.854 12.2228C12.8068 11.8049 12.6846 11.2588 12.5409 10.6115L11.0766 10.9364ZM9.20232 12.6708C9.7163 13.0897 10.1495 13.444 10.5018 13.6737C10.8113 13.8755 11.2952 14.1492 11.8307 14.003L11.4359 12.5559C11.5993 12.5113 11.6329 12.6205 11.321 12.4172C11.0519 12.2417 10.6926 11.9503 10.1499 11.508L9.20232 12.6708ZM11.4359 12.5559L11.8307 14.003C12.1089 13.9271 12.3592 13.7727 12.5519 13.5582L11.4359 12.5559ZM12.1072 7.30371C11.8423 7.5447 11.6083 7.75678 11.428 7.9518C11.2384 8.15692 11.0727 8.37973 10.9626 8.66123L12.3597 9.20732C12.3775 9.16172 12.4128 9.0962 12.5295 8.96998C12.6555 8.83365 12.8329 8.67137 13.1167 8.41323L12.1072 7.30371ZM12.4909 10.3861C12.4079 10.0116 12.3564 9.77676 12.332 9.59272C12.3094 9.42233 12.3183 9.34841 12.33 9.30088L10.8736 8.94194C10.8013 9.2354 10.8083 9.51301 10.845 9.78992C10.8799 10.0532 10.949 10.3614 11.0266 10.711L12.4909 10.3861ZM10.9626 8.66123C10.9268 8.75275 10.8971 8.84652 10.8736 8.94194L12.33 9.30088C12.3378 9.26908 12.3478 9.23783 12.3597 9.20732L10.9626 8.66123ZM12.0311 5.67285C12.786 5.74046 13.2678 5.78551 13.5871 5.86086C13.9269 5.94104 13.7875 5.98917 13.7323 5.82521L15.1541 5.34704C14.9428 4.71884 14.3605 4.50218 13.9316 4.40096C13.4822 4.2949 12.8694 4.24192 12.1649 4.17883L12.0311 5.67285ZM13.4784 8.08415C14.0015 7.60819 14.4578 7.19568 14.7518 6.83959C15.0323 6.49974 15.3654 5.97524 15.1541 5.34704L13.7323 5.82521C13.6772 5.66125 13.8173 5.61537 13.5951 5.88459C13.3862 6.13757 13.0296 6.46457 12.469 6.97463L13.4784 8.08415ZM8.724 3.31945C8.88495 3.7207 9.02579 4.07427 9.17362 4.35552C9.32949 4.65206 9.52047 4.9241 9.81217 5.14098L10.7071 3.93723C10.6592 3.90159 10.5971 3.83965 10.5014 3.65761C10.3976 3.46028 10.2885 3.19067 10.1162 2.76102L8.724 3.31945ZM12.0037 4.1644C11.5426 4.1231 11.253 4.09625 11.0342 4.05375C10.8323 4.01455 10.7551 3.97287 10.7071 3.93723L9.81217 5.14098C10.1039 5.35786 10.4194 5.46239 10.7483 5.52625C11.0602 5.58681 11.4393 5.61985 11.8699 5.65842L12.0037 4.1644ZM10.0887 2.69253C9.80304 1.98038 9.55954 1.36845 9.31609 0.944003C9.08988 0.54962 8.69681 0.015625 8.00044 0.015625V1.51562C7.81131 1.51562 7.81934 1.34932 8.01493 1.69031C8.19327 2.00124 8.39223 2.49237 8.69652 3.25097L10.0887 2.69253ZM7.30435 3.25097C7.60864 2.49236 7.80761 2.00124 7.98595 1.69031C8.18153 1.34932 8.18956 1.51562 8.00044 1.51562V0.015625C7.30407 0.015625 6.91099 0.549619 6.68478 0.944002C6.44134 1.36844 6.19783 1.98038 5.91217 2.69253L7.30435 3.25097Z" fill="inherit"/>
    </g>
  </symbol>
  <symbol id="done" viewBox="0 0 14 14">
    <g>
      <path d="M6.9987 13.6654C3.3168 13.6654 0.332031 10.6806 0.332031 6.9987C0.332031 3.3168 3.3168 0.332031 6.9987 0.332031C10.6806 0.332031 13.6654 3.3168 13.6654 6.9987C13.6613 10.6789 10.6789 13.6613 6.9987 13.6654ZM6.98803 12.332H6.9987C9.94317 12.3291 12.3282 9.94051 12.3267 6.99603C12.3252 4.05156 9.93784 1.66537 6.99336 1.66537C4.04889 1.66537 1.6615 4.05156 1.66003 6.99603C1.65856 9.94051 4.04356 12.3291 6.98803 12.332ZM5.66536 10.332L2.9987 7.66536L3.9387 6.72536L5.66536 8.44536L10.0587 4.05203L10.9987 4.9987L5.66536 10.332Z" fill="inherit"/>
    </g>
  </symbol>
  <symbol id="dialog" viewBox="0 0 12 12">
    <g>
      <path d="M3.36757 9.88563L3.80324 10.1186C4.47841 10.4795 5.2324 10.6678 5.998 10.6667L6 10.6667C8.57742 10.6667 10.6667 8.57742 10.6667 6C10.6667 3.42258 8.57742 1.33333 6 1.33333C3.42259 1.33333 1.33334 3.42258 1.33334 6V6.002C1.33219 6.7676 1.52048 7.52159 1.88145 8.19676L2.11437 8.63243L1.75622 10.2438L3.36757 9.88563ZM6.77189e-06 12L0.705606 8.8254C0.240926 7.95623 -0.00147711 6.98558 6.77189e-06 6C6.77189e-06 2.6862 2.68621 0 6 0C9.3138 0 12 2.6862 12 6C12 9.31379 9.3138 12 6 12C5.01442 12.0015 4.04377 11.7591 3.17461 11.2944L6.77189e-06 12Z" fill="inherit"/>
    </g>
  </symbol>
  <symbol id="star" viewBox="0 0 16 15">
    <g>
      <path d="M6.60826 2.97175C7.19822 1.501 7.49319 0.765625 8.00044 0.765625C8.50768 0.765625 8.80266 1.501 9.39261 2.97175L9.42008 3.04024C9.75338 3.87114 9.92002 4.28659 10.2597 4.5391C10.5993 4.79162 11.0451 4.83155 11.9368 4.91141L12.098 4.92584C13.5574 5.05654 14.2871 5.12189 14.4432 5.58613C14.5993 6.05036 14.0575 6.54337 12.9737 7.52939L12.612 7.85847C12.0633 8.35761 11.789 8.60718 11.6612 8.93427C11.6373 8.99529 11.6175 9.0578 11.6018 9.12141C11.5178 9.4624 11.5981 9.82445 11.7587 10.5486L11.8088 10.7739C12.104 12.1047 12.2516 12.7701 11.9939 13.0571C11.8976 13.1643 11.7724 13.2415 11.6333 13.2795C11.2612 13.381 10.7328 12.9505 9.67609 12.0894C8.98221 11.524 8.63527 11.2413 8.23694 11.1777C8.08027 11.1527 7.92061 11.1527 7.76393 11.1777C7.3656 11.2413 7.01866 11.524 6.32478 12.0894C5.26807 12.9505 4.73971 13.381 4.36756 13.2795C4.2285 13.2415 4.10331 13.1643 4.007 13.0571C3.74924 12.7701 3.89687 12.1047 4.19212 10.7739L4.24213 10.5486C4.40278 9.82445 4.48311 9.4624 4.39907 9.12141C4.38339 9.0578 4.36357 8.99529 4.33972 8.93427C4.21186 8.60718 3.93755 8.35761 3.38892 7.85847L3.02721 7.52939C1.94342 6.54337 1.40153 6.05036 1.55767 5.58613C1.7138 5.12189 2.44348 5.05654 3.90284 4.92584L4.06404 4.91141C4.95573 4.83155 5.40157 4.79162 5.74121 4.5391C6.08085 4.28659 6.2475 3.87114 6.58079 3.04023L6.60826 2.97175Z" fill="inherit"/>
      <path d="M4.06404 4.91141L3.99714 4.1644V4.1644L4.06404 4.91141ZM6.58079 3.04023L5.8847 2.76102L5.8847 2.76102L6.58079 3.04023ZM3.02721 7.52939L2.52249 8.08415H2.52249L3.02721 7.52939ZM3.90284 4.92584L3.96974 5.67285L3.96974 5.67285L3.90284 4.92584ZM4.24213 10.5486L3.50993 10.3861L3.50993 10.3861L4.24213 10.5486ZM4.39907 9.12141L3.67086 9.30088L4.39907 9.12141ZM3.38892 7.85847L3.89363 7.30371L3.89363 7.30371L3.38892 7.85847ZM4.33972 8.93427L5.03825 8.66123V8.66123L4.33972 8.93427ZM6.32478 12.0894L6.79855 12.6708L6.32478 12.0894ZM4.36756 13.2795L4.17013 14.003L4.36756 13.2795ZM4.19212 10.7739L4.92431 10.9364H4.92432L4.19212 10.7739ZM4.007 13.0571L3.44901 13.5582L4.007 13.0571ZM9.67609 12.0894L9.20232 12.6708L9.67609 12.0894ZM8.23694 11.1777L8.11869 11.9183L8.23694 11.1777ZM7.76393 11.1777L7.88218 11.9183L7.76393 11.1777ZM11.8088 10.7739L11.0766 10.9364L11.0766 10.9364L11.8088 10.7739ZM11.9939 13.0571L12.5519 13.5582L11.9939 13.0571ZM11.6333 13.2795L11.8307 14.003L11.6333 13.2795ZM12.612 7.85847L13.1167 8.41323L12.612 7.85847ZM11.6612 8.93427L12.3597 9.20732L11.6612 8.93427ZM11.7587 10.5486L12.4909 10.3861V10.3861L11.7587 10.5486ZM11.6018 9.12141L12.33 9.30088L11.6018 9.12141ZM12.098 4.92584L12.0311 5.67285L12.098 4.92584ZM12.9737 7.52939L12.469 6.97463L12.9737 7.52939ZM9.42008 3.04024L8.724 3.31945V3.31945L9.42008 3.04024ZM11.9368 4.91141L12.0037 4.1644L11.9368 4.91141ZM9.39261 2.97175L10.0887 2.69253V2.69253L9.39261 2.97175ZM6.60826 2.97175L7.30435 3.25097V3.25097L6.60826 2.97175ZM8.00044 0.765625V1.51562V0.765625ZM8.69652 3.25097L8.724 3.31945L10.1162 2.76102L10.0887 2.69253L8.69652 3.25097ZM11.8699 5.65842L12.0311 5.67285L12.1649 4.17883L12.0037 4.1644L11.8699 5.65842ZM12.469 6.97463L12.1072 7.30371L13.1167 8.41323L13.4784 8.08415L12.469 6.97463ZM11.0266 10.711L11.0766 10.9364L12.5409 10.6115L12.4909 10.3861L11.0266 10.711ZM4.92432 10.9364L4.97432 10.711L3.50993 10.3861L3.45993 10.6115L4.92432 10.9364ZM3.89363 7.30371L3.53192 6.97463L2.52249 8.08415L2.8842 8.41323L3.89363 7.30371ZM3.96974 5.67285L4.13094 5.65842L3.99714 4.1644L3.83594 4.17883L3.96974 5.67285ZM7.27688 3.31945L7.30435 3.25097L5.91218 2.69253L5.8847 2.76102L7.27688 3.31945ZM4.13094 5.65842C4.56155 5.61985 4.9407 5.58681 5.25261 5.52625C5.58147 5.46239 5.897 5.35786 6.1887 5.14098L5.29372 3.93723C5.24579 3.97287 5.16857 4.01455 4.96669 4.05375C4.74784 4.09625 4.45823 4.1231 3.99714 4.1644L4.13094 5.65842ZM5.8847 2.76102C5.71236 3.19067 5.60323 3.46028 5.4995 3.65761C5.40382 3.83965 5.34166 3.90159 5.29372 3.93723L6.1887 5.14098C6.4804 4.9241 6.67139 4.65206 6.82726 4.35552C6.97509 4.07427 7.11593 3.7207 7.27688 3.31945L5.8847 2.76102ZM3.53192 6.97463C2.97129 6.46457 2.61469 6.13757 2.40582 5.88459C2.18355 5.61537 2.32368 5.66125 2.26854 5.82521L0.846793 5.34704C0.635515 5.97524 0.968527 6.49974 1.24911 6.83959C1.54311 7.19568 1.99934 7.60819 2.52249 8.08415L3.53192 6.97463ZM3.83594 4.17883C3.1315 4.24192 2.51871 4.2949 2.06928 4.40096C1.64035 4.50218 1.05807 4.71884 0.846793 5.34704L2.26854 5.82521C2.21339 5.98917 2.07402 5.94104 2.4138 5.86086C2.73309 5.78551 3.21482 5.74046 3.96974 5.67285L3.83594 4.17883ZM4.97432 10.711C5.05189 10.3614 5.12094 10.0532 5.15585 9.78991C5.19257 9.51301 5.19961 9.2354 5.12728 8.94194L3.67086 9.30088C3.68258 9.34841 3.69147 9.42233 3.66887 9.59272C3.64446 9.77676 3.59302 10.0116 3.50993 10.3861L4.97432 10.711ZM2.8842 8.41323C3.16794 8.67137 3.34534 8.83365 3.47136 8.96998C3.58803 9.0962 3.62336 9.16172 3.64119 9.20732L5.03825 8.66123C4.92822 8.37973 4.76247 8.15692 4.57286 7.9518C4.3926 7.75678 4.15853 7.5447 3.89363 7.30371L2.8842 8.41323ZM5.12728 8.94194C5.10377 8.84652 5.07402 8.75275 5.03825 8.66123L3.64119 9.20732C3.65311 9.23782 3.66302 9.26908 3.67086 9.30088L5.12728 8.94194ZM5.85101 11.508C5.30828 11.9503 4.94895 12.2417 4.67984 12.4172C4.36796 12.6205 4.4016 12.5113 4.56499 12.5559L4.17013 14.003C4.70567 14.1492 5.18957 13.8755 5.49908 13.6737C5.85136 13.444 6.28458 13.0897 6.79855 12.6708L5.85101 11.508ZM3.45993 10.6115C3.31632 11.2588 3.19407 11.8049 3.14691 12.2228C3.10547 12.59 3.07808 13.1452 3.44901 13.5582L4.56499 12.5559C4.67815 12.6819 4.5957 12.761 4.63745 12.391C4.67347 12.0718 4.77267 11.6199 4.92431 10.9364L3.45993 10.6115ZM4.56499 12.5559H4.56499L3.44901 13.5582C3.64164 13.7727 3.892 13.9271 4.17013 14.003L4.56499 12.5559ZM10.1499 11.508C9.81394 11.2343 9.52215 10.9955 9.2626 10.8219C8.99191 10.6409 8.70223 10.4925 8.3552 10.4371L8.11869 11.9183C8.16999 11.9265 8.25294 11.9512 8.42877 12.0688C8.61574 12.1939 8.84436 12.3791 9.20232 12.6708L10.1499 11.508ZM6.79855 12.6708C7.15652 12.3791 7.38513 12.1939 7.57211 12.0688C7.74793 11.9512 7.83089 11.9265 7.88218 11.9183L7.64567 10.4371C7.29864 10.4925 7.00896 10.6409 6.73827 10.8219C6.47872 10.9955 6.18693 11.2343 5.85101 11.508L6.79855 12.6708ZM8.3552 10.4371C8.12018 10.3996 7.88069 10.3996 7.64567 10.4371L7.88218 11.9183C7.96052 11.9058 8.04035 11.9058 8.11869 11.9183L8.3552 10.4371ZM11.0766 10.9364C11.2282 11.6199 11.3274 12.0718 11.3634 12.391C11.4052 12.761 11.3227 12.6819 11.4359 12.5559L12.5519 13.5582C12.9228 13.1452 12.8954 12.59 12.854 12.2228C12.8068 11.8049 12.6846 11.2588 12.5409 10.6115L11.0766 10.9364ZM9.20232 12.6708C9.7163 13.0897 10.1495 13.444 10.5018 13.6737C10.8113 13.8755 11.2952 14.1492 11.8307 14.003L11.4359 12.5559C11.5993 12.5113 11.6329 12.6205 11.321 12.4172C11.0519 12.2417 10.6926 11.9503 10.1499 11.508L9.20232 12.6708ZM11.4359 12.5559L11.8307 14.003C12.1089 13.9271 12.3592 13.7727 12.5519 13.5582L11.4359 12.5559ZM12.1072 7.30371C11.8423 7.5447 11.6083 7.75678 11.428 7.9518C11.2384 8.15692 11.0727 8.37973 10.9626 8.66123L12.3597 9.20732C12.3775 9.16172 12.4128 9.0962 12.5295 8.96998C12.6555 8.83365 12.8329 8.67137 13.1167 8.41323L12.1072 7.30371ZM12.4909 10.3861C12.4079 10.0116 12.3564 9.77676 12.332 9.59272C12.3094 9.42233 12.3183 9.34841 12.33 9.30088L10.8736 8.94194C10.8013 9.2354 10.8083 9.51301 10.845 9.78992C10.8799 10.0532 10.949 10.3614 11.0266 10.711L12.4909 10.3861ZM10.9626 8.66123C10.9268 8.75275 10.8971 8.84652 10.8736 8.94194L12.33 9.30088C12.3378 9.26908 12.3478 9.23783 12.3597 9.20732L10.9626 8.66123ZM12.0311 5.67285C12.786 5.74046 13.2678 5.78551 13.5871 5.86086C13.9269 5.94104 13.7875 5.98917 13.7323 5.82521L15.1541 5.34704C14.9428 4.71884 14.3605 4.50218 13.9316 4.40096C13.4822 4.2949 12.8694 4.24192 12.1649 4.17883L12.0311 5.67285ZM13.4784 8.08415C14.0015 7.60819 14.4578 7.19568 14.7518 6.83959C15.0323 6.49974 15.3654 5.97524 15.1541 5.34704L13.7323 5.82521C13.6772 5.66125 13.8173 5.61537 13.5951 5.88459C13.3862 6.13757 13.0296 6.46457 12.469 6.97463L13.4784 8.08415ZM8.724 3.31945C8.88495 3.7207 9.02579 4.07427 9.17362 4.35552C9.32949 4.65206 9.52047 4.9241 9.81217 5.14098L10.7071 3.93723C10.6592 3.90159 10.5971 3.83965 10.5014 3.65761C10.3976 3.46028 10.2885 3.19067 10.1162 2.76102L8.724 3.31945ZM12.0037 4.1644C11.5426 4.1231 11.253 4.09625 11.0342 4.05375C10.8323 4.01455 10.7551 3.97287 10.7071 3.93723L9.81217 5.14098C10.1039 5.35786 10.4194 5.46239 10.7483 5.52625C11.0602 5.58681 11.4393 5.61985 11.8699 5.65842L12.0037 4.1644ZM10.0887 2.69253C9.80304 1.98038 9.55954 1.36845 9.31609 0.944003C9.08988 0.54962 8.69681 0.015625 8.00044 0.015625V1.51562C7.81131 1.51562 7.81934 1.34932 8.01493 1.69031C8.19327 2.00124 8.39223 2.49237 8.69652 3.25097L10.0887 2.69253ZM7.30435 3.25097C7.60864 2.49236 7.80761 2.00124 7.98595 1.69031C8.18153 1.34932 8.18956 1.51562 8.00044 1.51562V0.015625C7.30407 0.015625 6.91099 0.549619 6.68478 0.944002C6.44134 1.36844 6.19783 1.98038 5.91217 2.69253L7.30435 3.25097Z" fill="inherit"/>
    </g>
  </symbol>
  <symbol id="segment" viewBox="0 0 14 12">
    <g>
      <path d="M9.25 11.25H0.25V9.75H9.25V11.25ZM13.75 8.25H0.25V6.75H13.75V8.25ZM9.25 5.25H0.25V3.75H9.25V5.25ZM13.75 2.25H0.25V0.75H13.75V2.25Z" fill="inherit"/>
    </g>
  </symbol>
  <symbol id="plus-sm" viewBox="0 0 10 10">
    <g>
      <path d="M5.66536 5.66536V9.66536H4.33203V5.66536H0.332031V4.33203H4.33203V0.332031H5.66536V4.33203H9.66536V5.66536H5.66536Z" fill="inherit"/>
    </g>
  </symbol>
  <symbol id="checkbox" viewBox="0 0 16 16">
    <g>
      <path fill-rule="evenodd" clip-rule="evenodd" d="M12 2H4C2.89543 2 2 2.89543 2 4V12C2 13.1046 2.89543 14 4 14H12C13.1046 14 14 13.1046 14 12V4C14 2.89543 13.1046 2 12 2ZM4 0C1.79086 0 0 1.79086 0 4V12C0 14.2091 1.79086 16 4 16H12C14.2091 16 16 14.2091 16 12V4C16 1.79086 14.2091 0 12 0H4Z" fill="inherit"/>
      <path d="M4 6C4 4.89543 4.89543 4 6 4H10C11.1046 4 12 4.89543 12 6V10C12 11.1046 11.1046 12 10 12H6C4.89543 12 4 11.1046 4 10V6Z" fill="inherit"/>
    </g>
  </symbol>
  <symbol id="checkbox-unchecked" viewBox="0 0 16 16">
    <g>
      <path fill-rule="evenodd" clip-rule="evenodd" d="M12 2H4C2.89543 2 2 2.89543 2 4V12C2 13.1046 2.89543 14 4 14H12C13.1046 14 14 13.1046 14 12V4C14 2.89543 13.1046 2 12 2ZM4 0C1.79086 0 0 1.79086 0 4V12C0 14.2091 1.79086 16 4 16H12C14.2091 16 16 14.2091 16 12V4C16 1.79086 14.2091 0 12 0H4Z" fill="inherit"/>
    </g>
  </symbol>
  <symbol id="check-list" viewBox="0 0 16 16">
    <g>
      <path d="M16 12H4V10H16V12ZM2 12H0V10H2V12ZM16 7H4V5H16V7ZM2 7H0V5H2V7ZM16 2H4.023V0H16V2ZM2 2H0V0H2V2Z" fill="inherit"/>
    </g>
  </symbol>
  <symbol id="clock" viewBox="0 0 20 20">
    <g>
      <path d="M10 20C4.47715 20 0 15.5228 0 10C0 4.47715 4.47715 0 10 0C15.5228 0 20 4.47715 20 10C19.9939 15.5203 15.5203 19.9939 10 20ZM10 2C5.58172 2 2 5.58172 2 10C2 14.4183 5.58172 18 10 18C14.4183 18 18 14.4183 18 10C17.995 5.58378 14.4162 2.00496 10 2ZM15 11H9V5H11V9H15V11Z" fill="inherit"/>
      </g>
  </symbol>
  <symbol id="chat" viewBox="0 0 18 18">
    <g>
      <path d="M6 6H4V8H6V6Z" fill="inherit"/>
      <path d="M8 6H10V8H8V6Z" fill="inherit"/>
      <path d="M14 6H12V8H14V6Z" fill="inherit"/>
      <path d="M0 2V18L4.8 14.4C5.14582 14.1396 5.56713 13.9992 6 14H16C17.1046 14 18 13.1046 18 12V2C18 0.89543 17.1046 0 16 0H2C0.89543 0 0 0.89543 0 2ZM2 14V2H16V12H5.334C4.90107 11.9988 4.47964 12.1393 4.134 12.4L2 14Z" fill="inherit"/>
    </g>
  </symbol>
  <symbol id="tag" viewBox="0 0 11 10">
    <g>
      <path d="M5.68942 10C4.86069 10 4.12405 9.88936 3.47948 9.66808C2.83754 9.44938 2.29558 9.12646 1.85359 8.69934C1.4116 8.2748 1.07616 7.75634 0.847277 7.14396C0.61839 6.53158 0.502631 5.83173 0.5 5.04438C0.502631 4.27505 0.619705 3.58163 0.851223 2.96411C1.08274 2.34401 1.42081 1.81397 1.86543 1.37399C2.31005 0.93143 2.85333 0.591792 3.49526 0.355076C4.1372 0.118359 4.86727 0 5.68548 0C6.45633 0 7.13904 0.114499 7.73362 0.343497C8.33083 0.572495 8.83465 0.891548 9.24507 1.30066C9.65812 1.70719 9.96988 2.1832 10.1803 2.72868C10.3934 3.27158 10.5 3.8608 10.5 4.49633C10.5 4.93632 10.4658 5.35315 10.3974 5.74682C10.329 6.13791 10.2119 6.48527 10.0462 6.78888C9.88306 7.0925 9.66075 7.33436 9.37924 7.51447C9.09774 7.69201 8.7452 7.7885 8.32163 7.80394C8.05591 7.8168 7.82307 7.79236 7.62313 7.73061C7.42318 7.66885 7.26138 7.57237 7.13773 7.44114C7.01671 7.30735 6.94041 7.14396 6.90884 6.95098H6.86148C6.80097 7.10536 6.68653 7.24688 6.51815 7.37553C6.35241 7.50161 6.1472 7.60067 5.90253 7.67271C5.65785 7.74218 5.38556 7.77049 5.08564 7.75762C4.76467 7.74218 4.46738 7.67014 4.19376 7.54149C3.92278 7.41027 3.686 7.22758 3.48343 6.99344C3.28348 6.75672 3.12826 6.47112 3.01776 6.13663C2.90726 5.80214 2.85201 5.42262 2.85201 4.99807C2.85201 4.58382 2.91252 4.21845 3.03354 3.90197C3.15456 3.58549 3.31636 3.31532 3.51894 3.09147C3.72415 2.86762 3.95567 2.69265 4.2135 2.56658C4.47132 2.43793 4.73704 2.35559 5.01065 2.31957C5.29479 2.28097 5.56183 2.28483 5.81176 2.33115C6.06169 2.37746 6.26953 2.44822 6.43528 2.54342C6.60366 2.63862 6.70889 2.74283 6.75099 2.85604H6.80624V2.42377H7.90726V6.09803C7.90989 6.29101 7.95725 6.44667 8.04933 6.56503C8.14404 6.68339 8.27559 6.74257 8.44396 6.74257C8.65443 6.74257 8.82413 6.66152 8.95304 6.49942C9.08458 6.33475 9.17929 6.08259 9.23717 5.74296C9.29768 5.40075 9.32662 4.96333 9.32399 4.43072C9.32662 3.99331 9.26743 3.59707 9.14641 3.24199C9.02802 2.88434 8.85964 2.57044 8.64128 2.30027C8.42292 2.0301 8.16114 1.80497 7.85596 1.62486C7.55341 1.44217 7.21665 1.30452 6.8457 1.21189C6.47474 1.11926 6.07879 1.07295 5.65785 1.07295C5.01329 1.07295 4.44633 1.16943 3.95698 1.36241C3.46764 1.55281 3.05722 1.82426 2.72573 2.17677C2.39687 2.52927 2.14825 2.94738 1.97987 3.43111C1.81413 3.91226 1.73126 4.44487 1.73126 5.02895C1.73126 5.65419 1.81807 6.20867 1.99171 6.6924C2.16798 7.17355 2.42581 7.5788 2.76519 7.90814C3.10458 8.23749 3.5242 8.48707 4.02407 8.65689C4.52657 8.82671 5.10405 8.91162 5.75651 8.91162C6.05643 8.91162 6.34978 8.88846 6.63654 8.84215C6.92331 8.79583 7.18114 8.7418 7.41002 8.68005C7.63891 8.61829 7.81518 8.56426 7.93883 8.51795L8.27427 9.49826C8.11115 9.5806 7.89016 9.66036 7.61129 9.73755C7.33504 9.81474 7.02986 9.87778 6.69574 9.92667C6.36425 9.97556 6.02881 10 5.68942 10ZM5.41318 6.64994C5.7473 6.64994 6.01434 6.5869 6.21429 6.46083C6.41423 6.33218 6.55762 6.14177 6.64444 5.88962C6.73125 5.63746 6.77335 5.32356 6.77072 4.9479C6.77072 4.59797 6.72599 4.31108 6.63654 4.08722C6.54709 3.86337 6.40371 3.69741 6.20639 3.58935C6.00908 3.48128 5.7473 3.42725 5.42107 3.42725C5.12641 3.42725 4.87516 3.49286 4.66732 3.62408C4.46212 3.75531 4.30426 3.9367 4.19376 4.16827C4.0859 4.39727 4.03197 4.65843 4.03197 4.95176C4.03197 5.24508 4.07537 5.52168 4.16219 5.78155C4.25164 6.03885 4.39634 6.24855 4.59629 6.41065C4.79887 6.57018 5.07117 6.64994 5.41318 6.64994Z" fill="inherit"/>
    </g>
  </symbol>
  <symbol id="smile" viewBox="0 0 13 12">
    <g>
      <path d="M6.5013 11.8346C3.27964 11.8346 0.667969 9.22296 0.667969 6.0013C0.667969 2.77964 3.27964 0.167969 6.5013 0.167969C9.72296 0.167969 12.3346 2.77964 12.3346 6.0013C12.3311 9.2215 9.7215 11.8311 6.5013 11.8346ZM6.5013 1.33464C3.92397 1.33464 1.83464 3.42397 1.83464 6.0013C1.83464 8.57863 3.92397 10.668 6.5013 10.668C9.07863 10.668 11.168 8.57863 11.168 6.0013C11.1651 3.42517 9.07743 1.33753 6.5013 1.33464ZM6.5013 9.5013C5.57965 9.5169 4.70848 9.08132 4.16797 8.33464C3.90551 7.98364 3.70796 7.58853 3.58464 7.16797H9.41797C9.41797 7.16797 9.41797 7.16797 9.41797 7.17264C9.29274 7.59101 9.09532 7.98426 8.83464 8.33464C8.29405 9.08124 7.42293 9.5168 6.5013 9.5013ZM4.45964 6.0013C3.97639 6.0013 3.58464 5.60955 3.58464 5.1263C3.58464 4.64305 3.97639 4.2513 4.45964 4.2513C4.94288 4.2513 5.33464 4.64305 5.33464 5.1263C5.33464 5.60955 4.94288 6.0013 4.45964 6.0013ZM8.53889 5.99314C8.05789 5.99314 7.66797 5.60321 7.66797 5.12222C7.66797 4.64122 8.05789 4.2513 8.53889 4.2513C9.01988 4.2513 9.4098 4.64122 9.4098 5.12222C9.40916 5.60295 9.01961 5.99249 8.53889 5.99314Z" fill="inherit"/>
    </g>
  </symbol>
  <symbol id="clip" viewBox="0 0 12 12" fill="none">
    <g>
      <path d="M6.45348 1.98828L2.41655 5.86717C2.12597 6.14633 1.89548 6.47774 1.73821 6.8425C1.58095 7.20726 1.5 7.59821 1.5 7.99303C1.5 8.38786 1.58095 8.77882 1.73821 9.14358C1.89548 9.50834 2.12597 9.83976 2.41655 10.1189C2.70712 10.3981 3.05209 10.6196 3.43176 10.7707C3.81142 10.9218 4.21835 10.9996 4.6293 10.9996C5.04025 10.9996 5.44715 10.9218 5.82682 10.7707C6.20648 10.6196 6.55145 10.3981 6.84203 10.1189L9.85649 7.2225" stroke="#d7d7d7" stroke-width="1.2" stroke-miterlimit="10" stroke-linecap="round"/>
      <path d="M4.10547 4.24557L6.85815 1.60068C7.05632 1.41024 7.29158 1.25918 7.55052 1.15612C7.80946 1.05305 8.08701 1 8.36729 1C8.64757 1 8.92509 1.05305 9.18403 1.15612C9.44297 1.25918 9.67825 1.41024 9.87643 1.60068V1.60068C10.2764 1.98529 10.5011 2.50677 10.5011 3.05051C10.5011 3.59424 10.2764 4.11573 9.87643 4.50034L7.12134 7.14617" stroke="#d7d7d7" stroke-width="1.2" stroke-miterlimit="10" stroke-linecap="round"/>
      <path d="M6.86797 4.28125L4.02372 7.01415C3.80844 7.22114 3.6875 7.50178 3.6875 7.79441C3.6875 8.08704 3.80844 8.3677 4.02372 8.57469C4.13033 8.67722 4.25692 8.75856 4.39626 8.81406C4.5356 8.86956 4.68495 8.89813 4.83579 8.89813C4.98663 8.89813 5.13598 8.86956 5.27532 8.81406C5.41466 8.75856 5.54122 8.67722 5.64783 8.57469L7.12975 7.15126" stroke="#d7d7d7" stroke-width="1.2" stroke-miterlimit="10" stroke-linecap="round"/>
    </g>
  </symbol>
  <symbol id="clip-black" viewBox="0 0 12 12" fill="none">
    <g>
      <path d="M6.45348 1.98828L2.41655 5.86717C2.12597 6.14633 1.89548 6.47774 1.73821 6.8425C1.58095 7.20726 1.5 7.59821 1.5 7.99303C1.5 8.38786 1.58095 8.77882 1.73821 9.14358C1.89548 9.50834 2.12597 9.83976 2.41655 10.1189C2.70712 10.3981 3.05209 10.6196 3.43176 10.7707C3.81142 10.9218 4.21835 10.9996 4.6293 10.9996C5.04025 10.9996 5.44715 10.9218 5.82682 10.7707C6.20648 10.6196 6.55145 10.3981 6.84203 10.1189L9.85649 7.2225" stroke="#252733" stroke-width="1.2" stroke-miterlimit="10" stroke-linecap="round"/>
      <path d="M4.10547 4.24557L6.85815 1.60068C7.05632 1.41024 7.29158 1.25918 7.55052 1.15612C7.80946 1.05305 8.08701 1 8.36729 1C8.64757 1 8.92509 1.05305 9.18403 1.15612C9.44297 1.25918 9.67825 1.41024 9.87643 1.60068V1.60068C10.2764 1.98529 10.5011 2.50677 10.5011 3.05051C10.5011 3.59424 10.2764 4.11573 9.87643 4.50034L7.12134 7.14617" stroke="#252733" stroke-width="1.2" stroke-miterlimit="10" stroke-linecap="round"/>
      <path d="M6.86797 4.28125L4.02372 7.01415C3.80844 7.22114 3.6875 7.50178 3.6875 7.79441C3.6875 8.08704 3.80844 8.3677 4.02372 8.57469C4.13033 8.67722 4.25692 8.75856 4.39626 8.81406C4.5356 8.86956 4.68495 8.89813 4.83579 8.89813C4.98663 8.89813 5.13598 8.86956 5.27532 8.81406C5.41466 8.75856 5.54122 8.67722 5.64783 8.57469L7.12975 7.15126" stroke="#252733" stroke-width="1.2" stroke-miterlimit="10" stroke-linecap="round"/>
    </g>
  </symbol>
  <symbol id="yandex-logo" viewBox="0 0 65 25">
    <g>
      <path d="M61.017 15.6737C62.2725 15.6737 63.1619 15.4529 63.8246 14.9775V12.8209C63.1445 13.2793 62.3249 13.568 61.1739 13.568C59.2382 13.568 58.436 12.1077 58.436 9.79822C58.436 7.36992 59.4126 6.13029 61.1913 6.13029C62.2377 6.13029 63.2665 6.4869 63.8071 6.82652V4.58501C63.2317 4.27935 62.2377 4.05859 60.8774 4.05859C57.4071 4.05859 55.611 6.4869 55.611 9.88312C55.6284 13.602 57.3897 15.6737 61.017 15.6737ZM44.0491 14.6888V12.5322C43.212 13.0926 41.7821 13.585 40.4742 13.585C38.4862 13.585 37.7363 12.668 37.6142 10.8001H44.1712V9.40765C44.1712 5.51897 42.4099 4.05859 39.7069 4.05859C36.3935 4.05859 34.824 6.52086 34.824 9.9001C34.824 13.7888 36.7946 15.6737 40.2475 15.6737C41.9739 15.6737 43.2469 15.2152 44.0491 14.6888ZM19.1641 4.26237V8.67746H15.5368V4.26237H12.8164V15.4529H15.5368V10.7831H19.1641V15.4529H21.8845V4.26237H19.1641ZM34.1439 13.3473H32.9407V4.26237H25.0235V5.21331C25.0235 7.94727 24.8491 11.4793 23.89 13.3473H23.018V18.0001H25.5292V15.4529H31.6153V18.0001H34.1265V13.3473H34.1439ZM52.7161 15.4529H55.8028L51.4431 9.42463L55.2796 4.26237H52.5417L48.7052 9.42463V4.26237H45.9848V15.4529H48.7052V9.95105L52.7161 15.4529ZM39.6371 6.13029C40.9799 6.13029 41.3984 7.21708 41.3984 8.62652V8.84727H37.6142C37.684 7.06425 38.3467 6.13029 39.6371 6.13029ZM30.2202 13.3473H26.3837C27.1336 11.6661 27.3428 8.60954 27.3428 6.67369V6.33407H30.2202V13.3473Z" fill="#252733"/>
      <path d="M10.5504 15.4528H7.77766V2.08868H6.53951C4.27248 2.08868 3.08665 3.19245 3.08665 4.83962C3.08665 6.70755 3.90627 7.57358 5.59782 8.67736L6.99292 9.59434L2.98202 15.4528H0L3.60981 10.2226C1.53461 8.77925 0.366213 7.36981 0.366213 4.99245C0.366213 2.02075 2.49373 0 6.52207 0H10.533V15.4528H10.5504Z" fill="#FC3F1D"/>
    </g>
  </symbol>
  <symbol id="chevron-left" viewBox="0 0 8 14">
    <g>
      <path d="M0.288025 6.99999L6.29802 13.01L7.71202 11.596L3.11202 6.99599L7.71202 2.39599L6.29802 0.98999L0.288025 6.99999Z" fill="inherit"/>
    </g>
  </symbol>
  <symbol id="chevron-right" viewBox="0 0 8 14">
    <g>
      <path d="M7.71302 6.99999L1.70202 0.98999L0.288025 2.40399L4.88802 7.00399L0.288025 11.597L1.70202 13.011L7.71302 6.99999Z" fill="inherit"/>
    </g>
  </symbol>
  <symbol id="gantt-sidebar-arrow" viewBox="0 0 24 10">
    <g>
      <path d="M16.17 4L13.59 1.41L15 0L20 5L15 10L13.59 8.59L16.17 6H0V4H16.17Z" fill="#389393"/>
    </g>
  </symbol>
  <symbol id="plus-gantt-sidebar" viewBox="0 0 15 15">
    <path d="M8.5 8.5V14.5H6.5V8.5H0.5V6.5H6.5V0.5H8.5V6.5H14.5V8.5H8.5Z" fill="#389393"/>
  </symbol>
  <symbol id="filter-gantt-sidebar" viewBox="0 0 13 13">
    <path d="M11.9369 0.5H1.06315C0.563513 0.5 0.311396 1.10623 0.665419 1.46026L5 5.79549V10.625C5 10.8085 5.08955 10.9805 5.23993 11.0858L7.11493 12.3979C7.48484 12.6568 8 12.3944 8 11.937V5.79549L12.3347 1.46026C12.688 1.10694 12.4376 0.5 11.9369 0.5Z" fill="#252733"/>
  </symbol>
  <symbol id="arrow-down" viewBox="0 0 14 10">
    <path d="M3.99935 4.26953L7.33268 0.727864L0.666016 0.727864L3.99935 4.26953Z" fill="#252733"/>
  </symbol>
  <symbol id="bound" viewBox="0 0 20 20">
    <path d="M3.99997 20C2.31411 19.9996 0.80947 18.9422 0.237872 17.3562C-0.333726 15.7702 0.150432 13.9961 1.44843 12.9203C2.74643 11.8445 4.5796 11.698 6.03197 12.554L12.554 6.03199C11.5337 4.29851 11.9613 2.07679 13.5521 0.845885C15.143 -0.38502 17.4009 -0.241182 18.8228 1.18164C20.2446 2.60446 20.3868 4.86249 19.1548 6.45248C17.9228 8.04248 15.7007 8.46853 13.968 7.44699L7.44697 13.968C8.17644 15.2049 8.18694 16.7379 7.47448 17.9846C6.76202 19.2314 5.43593 20.0006 3.99997 20ZM3.99997 14C2.8954 14 1.99997 14.8954 1.99997 16C1.99997 17.1046 2.8954 18 3.99997 18C5.10454 18 5.99997 17.1046 5.99997 16C5.99997 14.8954 5.10454 14 3.99997 14ZM16 1.99999C14.9074 2.0011 14.0179 2.87884 14.0022 3.97133C13.9865 5.06382 14.8505 5.96669 15.9427 5.99911C17.0348 6.03153 17.9508 5.18149 18 4.08999V4.48999V3.99999C18 2.89542 17.1045 1.99999 16 1.99999Z" fill="inherit"/>
  </symbol>
  <symbol id="plus-with-bgc" viewBox="0 0 35 35">
    <rect width="35" height="35" rx="10" fill="#389393" fill-opacity="0.2"/>
    <path d="M18.5 18.5V24.5H16.5V18.5H10.5V16.5H16.5V10.5H18.5V16.5H24.5V18.5H18.5Z" fill="#389393"/></symbol>

  <symbol id="arrow_dense-left" viewBox="0 0 6 10">
    <g>
      <path d="M0.5 5L5.5 10V0L0.5 5Z" fill="inherit"/>
    </g>
  </symbol>
  <symbol id="arrow_dense-right" viewBox="0 0 6 10">
    <g>
      <path d="M5.5 5L0.5 0L0.5 10L5.5 5Z" fill="inherit"/>
    </g>
  </symbol>
  <symbol id="arrow_long_right_up" viewBox="0 0 14 14">
    <g>
      <path d="M11.979 3.45L11.986 7H14L14 0H7V2.014L10.55 2.021L0 12.571L1.429 14L11.979 3.45Z" fill="inherit"/>
    </g>
  </symbol>
  <symbol id="deadline" viewBox="0 0 18 18">
    <g>
      <path d="M16 18H2C0.89543 18 0 17.1046 0 16V2C0 0.89543 0.89543 0 2 0H16C17.1046 0 18 0.89543 18 2V16C18 17.1046 17.1046 18 16 18ZM2 2V16H16V2H2ZM14 14H12V7H14V14ZM10 14H8V4H10V14ZM6 14H4V9H6V14Z" fill="inherit"/>
    </g>
  </symbol>
  <symbol id="check-mark" viewBox="0 0 20 16">
    <g>
      <path d="M6.81806 15.779L0.454102 9.41503L3.2841 6.58503L6.81806 10.129L16.716 0.221069L19.546 3.05107L6.81806 15.779Z" fill="inherit"/>
    </g>
  </symbol>
  <symbol id="checkbox__circle-checked" viewBox="0 0 24 24">
    <g>
      <circle cx="12" cy="12" r="4" fill="inherit"/>
      <circle cx="12" cy="12" r="7" stroke="#252733" stroke-width="2"/>
    </g>
  </symbol>
  <symbol id="checkbox__circle-unchecked" viewBox="0 0 24 24" fill="none">
    <g>
      <circle cx="12" cy="12" r="4" fill="transparent"/>
      <circle cx="12" cy="12" r="7" stroke="#252733" stroke-width="2"/>
    </g>
  </symbol>
  <symbol id="flag_nonefill" viewBox="0 0 24 24">
    <g>
      <path d="M5.5 20.5C4.94772 20.5 4.5 20.0523 4.5 19.5V4.50005C4.5 3.94776 4.94772 3.50002 5.5 3.50002H11.88C12.2602 3.4974 12.6089 3.71054 12.78 4.05005L13.5 5.50005H18.5C19.0523 5.50005 19.5 5.94776 19.5 6.50005V14.5C19.5 15.0523 19.0523 15.5 18.5 15.5H13.11C12.7334 15.4989 12.3895 15.2863 12.22 14.95L11.5 13.5H6.5V19.5C6.5 20.0523 6.05228 20.5 5.5 20.5ZM6.5 5.50005V11.5H12.5L13.5 13.5H17.5V7.50005H12.5L11.5 5.50005H6.5Z" fill="inherit"/>
    </g>
  </symbol>
  <symbol id="plus_square_angle" viewBox="0 0 24 24">
    <g>
      <path d="M16 22H4C2.89543 22 2 21.1046 2 20V8H4V20H16V22ZM20 18H8C6.89543 18 6 17.1046 6 16V4C6 2.89543 6.89543 2 8 2H20C21.1046 2 22 2.89543 22 4V16C22 17.1046 21.1046 18 20 18ZM8 4V16H20V4H8ZM15 14H13V11H10V9H13V6H15V9H18V11H15V14Z" fill="inherit"/>
    </g>
  </symbol>
  <symbol id="house_square" viewBox="0 0 24 24">
    <g>
      <path d="M20 21H4C3.44772 21 3 20.5523 3 20V12.7C3 12.4119 3.12432 12.1378 3.341 11.948L5 10.5V4C5 3.44772 5.44772 3 6 3H20C20.5523 3 21 3.44772 21 4V20C21 20.5523 20.5523 21 20 21ZM9 7.329C9.24212 7.32928 9.47592 7.4174 9.658 7.577L14.658 11.952C14.874 12.1407 14.9986 12.4132 15 12.7V19H19V5H7V8.75L8.341 7.576C8.52348 7.41654 8.75766 7.32876 9 7.329ZM8 16H10V19H13V13.157L9 9.657L5 13.157V19H8V16Z" fill="inherit"/>
    </g>
  </symbol>
  <symbol id="warning__fill" viewBox="0 0 24 24">
    <g>
      <path d="M12 22C6.47715 22 2 17.5228 2 12C2 6.47715 6.47715 2 12 2C17.5228 2 22 6.47715 22 12C21.9939 17.5203 17.5203 21.9939 12 22ZM11 15V17H13V15H11ZM11 7V13H13V7H11Z" fill="inherit"/>
    </g>
  </symbol>
</svg>
