<svg display="none" xmlns="http://www.w3.org/2000/svg"><symbol id="arrow" viewBox="0 0 14 8"><g><path d="m7 7.713 6.01-6.01L11.597.288 7 4.888 2.404.288.99 1.702 7 7.713Z" fill="inherit"/></g></symbol><symbol id="notification" viewBox="0 0 17 19"><g><path d="M16.431 14.077a.747.747 0 0 0-.872-.583.731.731 0 0 0-.598.852.71.71 0 0 1-.16.602.744.744 0 0 1-.574.263H2.877a.744.744 0 0 1-.576-.263.71.71 0 0 1-.16-.602c.213-1.104.638-1.83 1.05-2.533.5-.854 1.016-1.736 1.016-3.095V7.623c0-2.3 1.917-4.198 4.274-4.231h.141c2.349.033 4.26 1.93 4.26 4.231v1.095c0 1.157.387 1.953.75 2.609a.759.759 0 0 0 1.014.294.72.72 0 0 0 .302-.989c-.362-.652-.571-1.174-.571-1.914V7.623c0-1.501-.596-2.92-1.679-3.993a5.83 5.83 0 0 0-3.406-1.653V.911a.739.739 0 0 0-.748-.73.739.739 0 0 0-.747.73v1.068c-2.859.362-5.085 2.769-5.085 5.644v1.095c0 .972-.362 1.589-.82 2.37-.45.77-.962 1.643-1.22 2.99-.124.642.05 1.299.479 1.802.427.502 1.056.79 1.725.79h3.44c0 1.207 1.006 2.19 2.243 2.19 1.237 0 2.243-.983 2.243-2.19h3.425c.669 0 1.298-.288 1.725-.79.428-.503.603-1.16.48-1.803ZM8.56 17.4a.74.74 0 0 1-.748-.73h1.495a.74.74 0 0 1-.747.73Z" fill="inherit"/></g></symbol><symbol id="sign-in" viewBox="0 0 18 18"><g><path d="M16 18H2a2 2 0 0 1-2-2v-4h2v4h14V2H2v4H0V2a2 2 0 0 1 2-2h14a2 2 0 0 1 2 2v14a2 2 0 0 1-2 2Zm-8-5v-3H0V8h8V5l5 4-5 4Z" fill="inherit"/></g></symbol><symbol id="profile" viewBox="0 0 20 16"><g><path d="M18 16H2a1.943 1.943 0 0 1-2-1.876V1.875A1.942 1.942 0 0 1 2 0h16a1.942 1.942 0 0 1 2 1.875v12.25A1.943 1.943 0 0 1 18 16ZM2 2v11.989L18 14V2.011L2 2Zm9.43 10H4a3.21 3.21 0 0 1 1.093-2.14 3.829 3.829 0 0 1 2.622-1.11c.984.02 1.923.417 2.622 1.11A3.212 3.212 0 0 1 11.43 12ZM16 11h-3V9h3v2ZM7.715 8a1.934 1.934 0 0 1-2-2 1.935 1.935 0 0 1 2-2 1.935 1.935 0 0 1 2 2 1.934 1.934 0 0 1-2 2ZM16 7h-4V5h4v2Z" fill="inherit"/></g></symbol><symbol id="home" viewBox="0 0 20 19"><g><path d="M17 19H3a1 1 0 0 1-1-1v-8H0L9.292.707a1 1 0 0 1 1.415 0L20 10h-2v8a1 1 0 0 1-1 1Zm-9-7h4v5h4V8.828l-6-6-6 6V17h4v-5Z" fill="inherit"/></g></symbol><symbol id="folder" viewBox="0 0 20 18"><g><path d="M18 18H2a2 2 0 0 1-2-2V2a2 2 0 0 1 2-2h6a1 1 0 0 1 .707.293L10.414 2H18a2 2 0 0 1 2 2v12a2 2 0 0 1-2 2ZM2 4v12h16V4H2Z" fill="inherit"/></g></symbol><symbol id="folder-open" viewBox="0 0 20 17"><g><path d="M16 17H1a.984.984 0 0 1-.993-1H0V2a2 2 0 0 1 2-2h6a1 1 0 0 1 .616.213L10.9 2H16a2 2 0 0 1 2 2v4h1a1 1 0 0 1 .919 1.394l-3 7A1 1 0 0 1 16 17ZM4.66 10l-2.143 5h12.824l2.143-5H4.66ZM2 4v7.13l1.081-2.524A1 1 0 0 1 4 8h12V4H2Z" fill="inherit"/></g></symbol><symbol id="calendar-edit" viewBox="0 0 18 20"><g><path d="M16 20H2a2 2 0 0 1-2-2V4a2 2 0 0 1 2-2h2V0h2v2h6V0h2v2h2a2 2 0 0 1 2 2v14a2 2 0 0 1-2 2ZM2 8v10h14V8H2Zm0-4v2h14V4H2Zm4.8 13H5v-1.8l4.2-4.19 1.8 1.8L6.8 17Zm4.825-4.818-1.8-1.8L11.2 9.013l1.8 1.8-1.37 1.37-.005-.001Z" fill="inherit"/></g></symbol><symbol id="doughnut-chart" viewBox="0 0 20 20"><g><path d="M10.051 19.949A10 10 0 0 1 9.051 0v4.04a5.994 5.994 0 1 0 6.91 6.909H20a10.015 10.015 0 0 1-9.95 9Zm9.95-11h-4.04a5.993 5.993 0 0 0-4.91-4.909V0a10.022 10.022 0 0 1 8.95 8.948v.001Z" fill="inherit"/></g></symbol><symbol id="calendar" viewBox="0 0 18 20"><g><path d="M16 20H2a2 2 0 0 1-2-2V4a2 2 0 0 1 2-2h2V0h2v2h6V0h2v2h2a2 2 0 0 1 2 2v14a2 2 0 0 1-2 2ZM2 8v10h14V8H2Zm0-4v2h14V4H2Zm12 12h-2v-2h2v2Zm-4 0H8v-2h2v2Zm-4 0H4v-2h2v2Zm8-4h-2v-2h2v2Zm-4 0H8v-2h2v2Zm-4 0H4v-2h2v2Z" fill="inherit"/></g></symbol><symbol id="mail" viewBox="0 0 20 16"><g><path d="M18 16H2a2 2 0 0 1-2-2V1.913A2 2 0 0 1 2 0h16a2 2 0 0 1 2 2v12a2 2 0 0 1-2 2ZM2 3.868V14h16V3.868L10 9.2 2 3.868ZM2.8 2 10 6.8 17.2 2H2.8Z" fill="inherit"/></g></symbol><symbol id="settings" viewBox="0 0 20 20"><g><path d="M11.82 20H8.18a1 1 0 0 1-.977-.786l-.407-1.884a8.002 8.002 0 0 1-1.535-.887l-1.837.585a1 1 0 0 1-1.17-.453L.43 13.424a1.006 1.006 0 0 1 .193-1.239l1.425-1.3a8.1 8.1 0 0 1 0-1.772L.623 7.816a1.006 1.006 0 0 1-.193-1.24l1.82-3.153a1 1 0 0 1 1.17-.453l1.837.585c.244-.18.498-.348.761-.5.252-.142.512-.271.778-.386L7.204.787A1 1 0 0 1 8.18 0h3.64a1 1 0 0 1 .976.787l.412 1.883a8.004 8.004 0 0 1 1.534.887l1.838-.585a1 1 0 0 1 1.169.453l1.82 3.153c.232.407.152.922-.193 1.239l-1.425 1.3a8.1 8.1 0 0 1 0 1.772l1.425 1.3c.345.318.425.832.193 1.239l-1.82 3.153a1 1 0 0 1-1.169.453l-1.838-.585a7.994 7.994 0 0 1-1.534.886l-.412 1.879a1 1 0 0 1-.976.786Zm-6.2-5.771.82.6c.185.136.378.261.577.375.188.109.381.207.579.296l.933.409L8.986 18h2.03l.457-2.092.933-.409c.407-.18.794-.403 1.153-.666l.821-.6 2.041.65 1.015-1.758-1.583-1.443.112-1.012c.05-.443.05-.89 0-1.332l-.112-1.012 1.584-1.446-1.016-1.759-2.041.65-.821-.6a6.23 6.23 0 0 0-1.153-.671l-.933-.409L11.016 2h-2.03l-.459 2.092-.931.408a6.012 6.012 0 0 0-1.153.666l-.821.6-2.04-.65L2.565 6.88l1.583 1.441-.112 1.013c-.05.443-.05.89 0 1.332l.112 1.012-1.583 1.443 1.015 1.758 2.04-.65ZM9.996 14a4 4 0 1 1 0-8 4 4 0 0 1 0 8Zm0-6a2 2 0 1 0 2 2.09v.4V10a2 2 0 0 0-2-2Z" fill="inherit"/></g></symbol><symbol id="logo" viewBox="0 0 25 31"><g><path id="logo-path" d="M2 28.807V16.226m7 12.58v-7.548m7 7.549V9.517m7 19.29v-26" stroke="url(#paint_linear)" stroke-width="4" stroke-linecap="round"/><defs><linearGradient id="paint_linear" x1="12.5" y1="2.80664" x2="12.5" y2="28.8066" gradientUnits="userSpaceOnUse"><stop stop-color="#3493FF"/><stop offset="0.523958" stop-color="#499BF8" stop-opacity="0.8"/><stop offset="1" stop-color="#1963B7"/></linearGradient></defs>1</g></symbol><symbol id="circle" viewBox="0 0 19 20" fill="none"><g><circle cx="9.5" cy="10" r="9" stroke="inherit"/></g></symbol><symbol id="file-add" viewBox="0 0 16 20"><g><path d="M14 20H2a2 2 0 0 1-2-2V2a2 2 0 0 1 2-2h7a.105.105 0 0 1 .027 0h.006l.029.006c.088.006.175.023.259.051H9.363A.423.423 0 0 1 9.415.1a.987.987 0 0 1 .293.2l6 6a.987.987 0 0 1 .2.293.735.735 0 0 1 .023.066v.028c.028.083.044.17.049.258a.1.1 0 0 0 .007.029v.006c.005.006.01.013.013.02v11a2 2 0 0 1-2 2ZM2 2v16h12V8H9a1 1 0 0 1-1-1V2H2Zm8 1.414V6h2.586L10 3.414ZM9 16H7v-2H5v-2h2v-2h2v2h2v2H9v2Z" fill="inherit"/></g></symbol><symbol id="folder-add" viewBox="0 0 20 18"><g><path d="M18 18H2a2 2 0 0 1-2-2V2a2 2 0 0 1 2-2h6a1 1 0 0 1 .707.293L10.414 2H18a2 2 0 0 1 2 2v12a2 2 0 0 1-2 2ZM2 4v12h16V4H2Zm9 10H9v-3H6V9h3V6h2v3h3v2h-3v3Z" fill="inherit"/></g></symbol><symbol id="user-say" viewBox="0 0 19 17"><g><path d="M2 17.001H0a6 6 0 0 1 12 0h-2a4 4 0 1 0-8 0Zm14.364-3.637L14.95 11.95a7 7 0 0 0 0-9.9L16.364.636a9 9 0 0 1 0 12.727v.001Zm-2.829-2.828L12.121 9.12a3 3 0 0 0 0-4.24l1.414-1.417a5 5 0 0 1 0 7.071v.002ZM6 10a4 4 0 1 1 0-8 4 4 0 0 1 0 8Zm0-6a2 2 0 1 0 2 2.09v.4V6a2 2 0 0 0-2-2Z" fill="inherit"/></g></symbol><symbol id="task-add" viewBox="0 0 21 18"><g><path d="M10 7v11H2a2 2 0 0 1-2-2V2a2 2 0 0 1 2-2h14a2 2 0 0 1 2 2v5h-8ZM8 7H2v4h6V7Zm0 9v-3H2v3h6Zm2-14v3h6V2h-6ZM8 2H2v3h6V2Z" fill="inherit"/><path d="M16 18v-3h-3v-2h3v-3h2v3h3v2h-3v3h-2Z" fill="inherit"/></g></symbol><symbol id="notification-with-circle" viewBox="0 0 16 20"><g><path d="M8 20a2 2 0 0 1-2-2h4a2 2 0 0 1-2 2Zm8-3H0v-2l2-1V8.5c0-3.462 1.421-5.707 4-6.32V0h3a4.955 4.955 0 0 0-1 3c0 .251.019.502.056.751H8A3.6 3.6 0 0 0 4.875 5.2 5.692 5.692 0 0 0 4 8.5V15h8V8.5c0-.211-.007-.414-.021-.6a5.043 5.043 0 0 0 2.006.007c.011.211.015.412.015.6V14l2 1v2ZM13 6a3 3 0 1 1 0-6 3 3 0 0 1 0 6Z" fill="inherit"/></g></symbol><symbol id="arrow-caret" viewBox="0 0 6 10"><g><path d="m.5 5 5 5V0l-5 5Z" fill="inherit"/></g></symbol><symbol id="edit" viewBox="0 0 17 17"><g><path d="M1.051 16.865a.917.917 0 0 1-.675-.299.906.906 0 0 1-.241-.7l.224-2.47 10.375-10.37 3.242 3.24-10.372 10.37-2.47.225a.856.856 0 0 1-.083.004ZM14.623 5.618l-3.241-3.24L13.326.432a.916.916 0 0 1 1.297 0l1.945 1.944a.917.917 0 0 1 0 1.297l-1.944 1.944Z" fill="inherit"/></g></symbol><symbol id="error" viewBox="0 0 18 18"><g><path d="M9 16.5A7.5 7.5 0 1 1 16.5 9 7.508 7.508 0 0 1 9 16.5Zm-.75-5.25v1.5h1.5v-1.5h-1.5Zm0-6v4.5h1.5v-4.5h-1.5Z" fill="inherit"/></g></symbol><symbol id="pdf" viewBox="0 0 12 16"><g><path d="M10.5 15.5h-9A1.5 1.5 0 0 1 0 14V2A1.5 1.5 0 0 1 1.5.5H6.775a.112.112 0 0 0 .021.005.761.761 0 0 1 .195.038h.032c.013.01.026.02.038.032a.74.74 0 0 1 .22.15l4.5 4.5a.74.74 0 0 1 .15.22.55.55 0 0 1 .017.05l.008.02a.725.725 0 0 1 .037.194c0 .007.002.015.005.022v.004L12 5.75V14a1.5 1.5 0 0 1-1.5 1.5Zm-2.682-6v3.75h.705v-1.53h1.095v-.629H8.523v-.96H9.75V9.5H7.818Zm-2.775 0v3.75h.904c.38.019.747-.136 1-.42.258-.33.388-.743.364-1.162v-.607a1.716 1.716 0 0 0-.375-1.145c-.244-.277-.6-.43-.97-.416h-.923Zm-2.793 0v3.75h.705v-1.32h.47c.313.018.62-.098.843-.319.213-.238.323-.55.307-.87a1.294 1.294 0 0 0-.309-.895 1.05 1.05 0 0 0-.827-.346H2.25ZM6.75 2v3.75h3.75L6.75 2Zm-.79 10.621h-.212v-2.49h.256a.537.537 0 0 1 .466.219c.11.227.157.48.136.732v.651c.016.24-.036.48-.15.691a.573.573 0 0 1-.497.197ZM3.439 11.3h-.485v-1.17h.491a.356.356 0 0 1 .3.171c.082.134.12.29.113.445.01.146-.03.291-.11.413a.375.375 0 0 1-.31.141Z" fill="#18171C"/></g></symbol><symbol id="filter" viewBox="0 0 17 14"><g><path d="M13.937 0H3.063c-.5 0-.752.606-.398.96L7 5.295v4.83c0 .184.09.355.24.46l1.875 1.313a.563.563 0 0 0 .885-.461V5.295L14.335.96a.563.563 0 0 0-.398-.96Z" fill="inherit"/></g></symbol><symbol id="kanban" viewBox="0 0 16 16"><g><path d="M13.833 15.5H2.167C1.247 15.5.5 14.754.5 13.833V2.167C.5 1.247 1.246.5 2.167.5h11.666c.92 0 1.667.746 1.667 1.667v11.666c0 .92-.746 1.667-1.667 1.667Zm-2.5-13.333v11.666h2.5V2.167h-2.5Zm-9.166 0v11.666h7.5V2.167h-7.5Z" fill="inherit"/></g></symbol><symbol id="calendar-icon" viewBox="0 0 16 18"><g><path d="M13.833 17.335H2.167c-.92 0-1.667-.747-1.667-1.667V4.001c0-.92.746-1.666 1.667-1.666h1.666V.668H5.5v1.667h5V.668h1.667v1.667h1.666c.92 0 1.667.746 1.667 1.666v11.667c0 .92-.746 1.667-1.667 1.667Zm-11.666-10v8.333h11.666V7.335H2.167Zm0-3.334v1.667h11.666V4.001H2.167Z" fill="inherit"/></g></symbol><symbol id="chart" viewBox="0 0 18 18"><g><path d="M9.001 17.335A8.333 8.333 0 1 1 17.335 9 8.342 8.342 0 0 1 9 17.335ZM8.168 2.386a6.667 6.667 0 1 0 4.516 12.174l-.083.059.078-.054.049-.034.053-.038.014-.01.007-.005-4.273-4.275a1.258 1.258 0 0 1-.361-.886v-6.93Zm2.357 7.449 3.523 3.522.006-.006.004-.006-.008.01a6.62 6.62 0 0 0 1.566-3.52h-5.09Zm-.69-7.449v5.782h5.781a6.667 6.667 0 0 0-5.781-5.782Z" fill="inherit"/></g></symbol><symbol id="list" viewBox="0 0 16 14"><g><path d="M7.167.332H15.5v1.667H7.167V.332Zm0 3.333h5v1.667h-5V3.665Zm0 5H15.5v1.667H7.167V8.665Zm0 3.334h5v1.666h-5V12ZM.5.332h5v5h-5v-5Zm1.667 1.667v1.666h1.666V2H2.167ZM.5 8.665h5v5h-5v-5Zm1.667 1.667v1.667h1.666v-1.667H2.167Z" fill="inherit"/></g></symbol><symbol id="subordinates" viewBox="0 0 18 16"><g><path d="M6.501.5a4.167 4.167 0 1 0 0 8.333 4.167 4.167 0 0 0 0-8.333Zm-2.5 4.167a2.5 2.5 0 1 1 5 0 2.5 2.5 0 0 1-5 0Z" fill="inherit"/><path d="M13.092 4.849a1.667 1.667 0 0 0-.757-.182V3a3.333 3.333 0 1 1-1.964 6.027l-.001-.001.982-1.346a1.666 1.666 0 1 0 1.74-2.831Z" fill="inherit"/><path d="M15.666 15.5a3.332 3.332 0 0 0-3.331-3.332V10.5a4.999 4.999 0 0 1 5 5h-1.669Z" fill="inherit"/><path d="M12.335 15.5h-1.667a4.167 4.167 0 0 0-8.333 0H.668a5.833 5.833 0 1 1 11.667 0Z" fill="inherit"/></g></symbol><symbol id="search" viewBox="0 0 18 17"><g><path d="m16.184 16.608-5.715-5.716a6 6 0 0 1-7.72-9.133 6 6 0 0 1 9.135 7.718l5.715 5.716-1.414 1.414h-.001ZM6.992 2a4 4 0 1 0 2.917 1.264l.605.6-.682-.68-.012-.012A3.972 3.972 0 0 0 6.992 2Z" fill="inherit"/></g></symbol><symbol id="other" viewBox="0 0 13 4"><g><path fill-rule="evenodd" clip-rule="evenodd" d="M1.841 3.335a1.333 1.333 0 1 1 0-2.667 1.333 1.333 0 0 1 0 2.667Zm4.668 0a1.333 1.333 0 1 1 0-2.667 1.333 1.333 0 0 1 0 2.667ZM9.84 2a1.333 1.333 0 1 0 2.668 0 1.333 1.333 0 0 0-2.667 0Z" fill="inherit"/></g></symbol><symbol id="swirling-arrow" viewBox="0 0 14 16"><g><path d="M13.509 0h-2v2.557a7 7 0 1 0 1.037 10.011l-1.62-1.184A5 5 0 1 1 10.1 4H7.51v2h6V0Z" fill="#252733"/></g></symbol><symbol id="plus" viewBox="0 0 14 14"><g><path d="M8 8v6H6V8H0V6h6V0h2v6h6v2H8Z" fill="inherit"/></g></symbol><symbol id="plus" viewBox="0 0 16 15"><g><path d="M6.608 2.972C7.198 1.5 7.493.766 8 .766c.508 0 .803.735 1.393 2.206l.027.068c.333.831.5 1.247.84 1.5.34.252.785.292 1.677.371l.161.015c1.46.13 2.19.196 2.345.66.156.464-.386.957-1.47 1.943l-.361.33c-.549.499-.823.748-.95 1.075a1.496 1.496 0 0 0-.06.187c-.084.341-.004.703.157 1.428l.05.225c.295 1.33.443 1.996.185 2.283a.75.75 0 0 1-.36.223c-.373.101-.901-.33-1.958-1.19-.694-.566-1.04-.849-1.44-.912a1.501 1.501 0 0 0-.472 0c-.398.063-.745.346-1.44.911-1.056.861-1.584 1.292-1.956 1.19a.75.75 0 0 1-.361-.222c-.258-.287-.11-.952.185-2.283l.05-.225c.16-.725.241-1.087.157-1.428a1.5 1.5 0 0 0-.06-.187c-.127-.327-.401-.576-.95-1.076l-.362-.329c-1.084-.986-1.625-1.479-1.47-1.943.157-.464.886-.53 2.346-.66l.161-.015c.892-.08 1.338-.12 1.677-.372.34-.252.506-.668.84-1.499l.027-.068Z" fill="inherit"/><path d="m4.064 4.911-.067-.747.067.747Zm2.517-1.87-.696-.28.696.28ZM3.027 7.528l-.505.555.505-.555Zm.876-2.603.067.747-.067-.747Zm.34 5.623-.733-.163.732.163Zm.156-1.428-.728.18.728-.18ZM3.39 7.858l.505-.554-.505.554Zm.95 1.076.7-.273-.7.273Zm1.986 3.155.474.582-.474-.582Zm-1.957 1.19-.198.724.198-.723Zm-.176-2.505.732.162-.732-.162Zm-.185 2.283-.558.501.558-.5Zm5.67-.968-.475.582.474-.582Zm-1.44-.911-.118.74.118-.74Zm-.473 0 .118.74-.118-.74Zm4.045-.404-.732.162.732-.162Zm.185 2.283.558.501-.558-.5Zm-.36.223.197.723-.198-.723Zm.978-5.422.505.555-.505-.555Zm-.95 1.076.698.273-.699-.273Zm.097 1.615.732-.163-.732.163Zm-.157-1.428.728.18-.728-.18Zm.496-4.195-.067.747.067-.747Zm.876 2.603-.505-.554.505.554ZM9.42 3.04l-.696.28.696-.28Zm2.517 1.871.067-.747-.067.747Zm-2.544-1.94.696-.278-.696.279Zm-2.785 0 .696.28-.696-.28ZM8 .767v.75-.75Zm.697 2.485.027.068 1.392-.558-.027-.068-1.392.558Zm3.173 2.407.161.015.134-1.494-.161-.015-.134 1.494Zm.599 1.317-.362.329 1.01 1.11.361-.33-1.009-1.11Zm-1.442 3.736.05.225 1.464-.325-.05-.225-1.464.325Zm-6.103.225.05-.225-1.464-.325-.05.226 1.464.324Zm-1.03-3.632-.362-.33-1.01 1.11.362.33 1.01-1.11Zm.076-1.631.16-.015-.133-1.494-.161.015.134 1.494Zm3.307-2.354.027-.068-1.392-.558-.027.068 1.392.558ZM4.13 5.66c.43-.04.81-.072 1.122-.133.328-.064.644-.168.936-.385l-.895-1.204c-.048.036-.125.078-.327.117-.22.042-.509.07-.97.11l.134 1.494ZM5.885 2.76c-.173.43-.282.7-.385.897-.096.182-.158.244-.206.28l.895 1.203c.291-.217.482-.489.638-.785.148-.282.289-.635.45-1.037l-1.392-.558ZM3.532 6.975c-.56-.51-.917-.837-1.126-1.09-.222-.27-.082-.224-.137-.06L.847 5.347c-.211.628.122 1.153.402 1.493.294.356.75.768 1.273 1.244l1.01-1.11Zm.304-2.796c-.704.063-1.317.116-1.767.222-.429.101-1.01.318-1.222.946l1.422.478c-.056.164-.195.116.145.036.32-.075.8-.12 1.556-.188l-.134-1.494Zm1.138 6.532c.078-.35.147-.658.182-.921a2.233 2.233 0 0 0-.029-.848L3.671 9.3a.77.77 0 0 1-.002.292c-.025.184-.076.419-.16.793l1.465.325Zm-2.09-2.298c.284.258.461.42.587.557a.771.771 0 0 1 .17.237l1.397-.546a2.233 2.233 0 0 0-.465-.71c-.18-.194-.414-.406-.68-.647l-1.009 1.11Zm2.243.529a2.25 2.25 0 0 0-.089-.28l-1.397.545a.75.75 0 0 1 .03.094l1.456-.36Zm.724 2.566c-.543.442-.902.734-1.171.91-.312.203-.278.093-.115.138l-.395 1.447c.536.146 1.02-.127 1.33-.33.351-.229.785-.583 1.299-1.002l-.948-1.163Zm-2.391-.896c-.144.647-.266 1.193-.313 1.61-.042.368-.069.923.302 1.336l1.116-1.002c.113.126.03.205.072-.165.036-.32.136-.771.287-1.455l-1.464-.325Zm1.105 1.944-1.116 1.002a1.5 1.5 0 0 0 .721.445l.395-1.447Zm5.585-1.048c-.336-.274-.628-.512-.887-.686-.271-.181-.56-.33-.908-.385l-.236 1.481c.051.009.134.033.31.15.187.126.415.311.773.603l.948-1.163Zm-3.351 1.163c.358-.292.586-.477.773-.602.176-.118.259-.143.31-.15l-.236-1.482c-.347.056-.637.204-.908.385-.26.174-.551.412-.887.686l.948 1.163Zm1.556-2.234a2.252 2.252 0 0 0-.71 0l.237 1.481a.75.75 0 0 1 .237 0l.236-1.48Zm2.722.5c.151.683.25 1.135.286 1.454.042.37-.04.29.073.165l1.116 1.002c.37-.413.343-.968.302-1.335-.047-.418-.17-.964-.313-1.612l-1.464.325ZM9.202 12.67c.514.419.947.773 1.3 1.003.31.202.793.475 1.329.329l-.395-1.447c.163-.045.197.065-.115-.139-.27-.175-.628-.467-1.171-.909l-.948 1.163Zm2.234-.115.395 1.447a1.5 1.5 0 0 0 .72-.445l-1.115-1.002Zm.671-5.252c-.265.24-.499.453-.679.648-.19.205-.355.428-.465.71l1.397.545a.77.77 0 0 1 .17-.237c.126-.136.303-.299.587-.557l-1.01-1.11Zm.384 3.082c-.083-.374-.135-.61-.159-.793a.771.771 0 0 1-.002-.292l-1.456-.36a2.234 2.234 0 0 0-.029.849c.035.263.104.571.182.921l1.464-.325Zm-1.528-1.725a2.243 2.243 0 0 0-.09.28l1.457.36a.748.748 0 0 1 .03-.094l-1.397-.546Zm1.068-2.988c.755.067 1.237.113 1.556.188.34.08.2.128.145-.036l1.422-.478c-.211-.628-.793-.845-1.222-.946-.45-.106-1.063-.16-1.767-.222l-.134 1.494Zm1.447 2.411c.524-.476.98-.888 1.274-1.244.28-.34.613-.865.402-1.493l-1.422.478c-.055-.164.085-.21-.137.06-.209.253-.565.58-1.126 1.09l1.01 1.11ZM8.724 3.32c.16.402.302.755.45 1.037.155.296.346.568.638.785l.895-1.204c-.048-.035-.11-.097-.206-.28-.103-.197-.212-.466-.385-.896l-1.392.558Zm3.28.845c-.461-.04-.751-.068-.97-.11-.202-.04-.279-.081-.327-.117l-.895 1.204c.292.217.607.321.936.385.312.06.691.094 1.122.132l.134-1.494Zm-1.915-1.471c-.286-.713-.53-1.325-.773-1.749C9.09.55 8.696.016 8 .016v1.5c-.189 0-.18-.167.015.174.178.311.377.802.682 1.561l1.392-.558Zm-2.785.558c.305-.759.504-1.25.682-1.56.196-.342.204-.175.014-.175v-1.5c-.696 0-1.089.534-1.315.928-.244.424-.487 1.036-.773 1.749l1.392.558Z" fill="inherit"/></g></symbol><symbol id="done" viewBox="0 0 14 14"><g><path d="M6.999 13.665A6.667 6.667 0 1 1 13.665 7 6.674 6.674 0 0 1 7 13.665Zm-.011-1.333h.01a5.333 5.333 0 1 0-.01 0Zm-1.323-2L3 7.665l.94-.94 1.726 1.72 4.394-4.393.94.947-5.334 5.333Z" fill="inherit"/></g></symbol><symbol id="dialog" viewBox="0 0 12 12"><g><path d="m3.368 9.886.435.233c.675.36 1.43.549 2.195.548H6A4.667 4.667 0 1 0 1.333 6v.002a4.64 4.64 0 0 0 .548 2.195l.233.435-.358 1.612 1.612-.358ZM0 12l.706-3.175a6 6 0 1 1 2.469 2.469L0 12Z" fill="inherit"/></g></symbol><symbol id="star" viewBox="0 0 16 15"><g><path d="M6.608 2.972C7.198 1.5 7.493.766 8 .766c.508 0 .803.735 1.393 2.206l.027.068c.333.831.5 1.247.84 1.5.34.252.785.292 1.677.371l.161.015c1.46.13 2.19.196 2.345.66.156.464-.386.957-1.47 1.943l-.361.33c-.549.499-.823.748-.95 1.075a1.496 1.496 0 0 0-.06.187c-.084.341-.004.703.157 1.428l.05.225c.295 1.33.443 1.996.185 2.283a.75.75 0 0 1-.36.223c-.373.101-.901-.33-1.958-1.19-.694-.566-1.04-.849-1.44-.912a1.501 1.501 0 0 0-.472 0c-.398.063-.745.346-1.44.911-1.056.861-1.584 1.292-1.956 1.19a.75.75 0 0 1-.361-.222c-.258-.287-.11-.952.185-2.283l.05-.225c.16-.725.241-1.087.157-1.428a1.5 1.5 0 0 0-.06-.187c-.127-.327-.401-.576-.95-1.076l-.362-.329c-1.084-.986-1.625-1.479-1.47-1.943.157-.464.886-.53 2.346-.66l.161-.015c.892-.08 1.338-.12 1.677-.372.34-.252.506-.668.84-1.499l.027-.068Z" fill="inherit"/><path d="m4.064 4.911-.067-.747.067.747Zm2.517-1.87-.696-.28.696.28ZM3.027 7.528l-.505.555.505-.555Zm.876-2.603.067.747-.067-.747Zm.34 5.623-.733-.163.732.163Zm.156-1.428-.728.18.728-.18ZM3.39 7.858l.505-.554-.505.554Zm.95 1.076.7-.273-.7.273Zm1.986 3.155.474.582-.474-.582Zm-1.957 1.19-.198.724.198-.723Zm-.176-2.505.732.162-.732-.162Zm-.185 2.283-.558.501.558-.5Zm5.67-.968-.475.582.474-.582Zm-1.44-.911-.118.74.118-.74Zm-.473 0 .118.74-.118-.74Zm4.045-.404-.732.162.732-.162Zm.185 2.283.558.501-.558-.5Zm-.36.223.197.723-.198-.723Zm.978-5.422.505.555-.505-.555Zm-.95 1.076.698.273-.699-.273Zm.097 1.615.732-.163-.732.163Zm-.157-1.428.728.18-.728-.18Zm.496-4.195-.067.747.067-.747Zm.876 2.603-.505-.554.505.554ZM9.42 3.04l-.696.28.696-.28Zm2.517 1.871.067-.747-.067.747Zm-2.544-1.94.696-.278-.696.279Zm-2.785 0 .696.28-.696-.28ZM8 .767v.75-.75Zm.697 2.485.027.068 1.392-.558-.027-.068-1.392.558Zm3.173 2.407.161.015.134-1.494-.161-.015-.134 1.494Zm.599 1.317-.362.329 1.01 1.11.361-.33-1.009-1.11Zm-1.442 3.736.05.225 1.464-.325-.05-.225-1.464.325Zm-6.103.225.05-.225-1.464-.325-.05.226 1.464.324Zm-1.03-3.632-.362-.33-1.01 1.11.362.33 1.01-1.11Zm.076-1.631.16-.015-.133-1.494-.161.015.134 1.494Zm3.307-2.354.027-.068-1.392-.558-.027.068 1.392.558ZM4.13 5.66c.43-.04.81-.072 1.122-.133.328-.064.644-.168.936-.385l-.895-1.204c-.048.036-.125.078-.327.117-.22.042-.509.07-.97.11l.134 1.494ZM5.885 2.76c-.173.43-.282.7-.385.897-.096.182-.158.244-.206.28l.895 1.203c.291-.217.482-.489.638-.785.148-.282.289-.635.45-1.037l-1.392-.558ZM3.532 6.975c-.56-.51-.917-.837-1.126-1.09-.222-.27-.082-.224-.137-.06L.847 5.347c-.211.628.122 1.153.402 1.493.294.356.75.768 1.273 1.244l1.01-1.11Zm.304-2.796c-.704.063-1.317.116-1.767.222-.429.101-1.01.318-1.222.946l1.422.478c-.056.164-.195.116.145.036.32-.075.8-.12 1.556-.188l-.134-1.494Zm1.138 6.532c.078-.35.147-.658.182-.921a2.233 2.233 0 0 0-.029-.848L3.671 9.3a.77.77 0 0 1-.002.292c-.025.184-.076.419-.16.793l1.465.325Zm-2.09-2.298c.284.258.461.42.587.557a.771.771 0 0 1 .17.237l1.397-.546a2.233 2.233 0 0 0-.465-.71c-.18-.194-.414-.406-.68-.647l-1.009 1.11Zm2.243.529a2.25 2.25 0 0 0-.089-.28l-1.397.545a.75.75 0 0 1 .03.094l1.456-.36Zm.724 2.566c-.543.442-.902.734-1.171.91-.312.203-.278.093-.115.138l-.395 1.447c.536.146 1.02-.127 1.33-.33.351-.229.785-.583 1.299-1.002l-.948-1.163Zm-2.391-.896c-.144.647-.266 1.193-.313 1.61-.042.368-.069.923.302 1.336l1.116-1.002c.113.126.03.205.072-.165.036-.32.136-.771.287-1.455l-1.464-.325Zm1.105 1.944-1.116 1.002a1.5 1.5 0 0 0 .721.445l.395-1.447Zm5.585-1.048c-.336-.274-.628-.512-.887-.686-.271-.181-.56-.33-.908-.385l-.236 1.481c.051.009.134.033.31.15.187.126.415.311.773.603l.948-1.163Zm-3.351 1.163c.358-.292.586-.477.773-.602.176-.118.259-.143.31-.15l-.236-1.482c-.347.056-.637.204-.908.385-.26.174-.551.412-.887.686l.948 1.163Zm1.556-2.234a2.252 2.252 0 0 0-.71 0l.237 1.481a.75.75 0 0 1 .237 0l.236-1.48Zm2.722.5c.151.683.25 1.135.286 1.454.042.37-.04.29.073.165l1.116 1.002c.37-.413.343-.968.302-1.335-.047-.418-.17-.964-.313-1.612l-1.464.325ZM9.202 12.67c.514.419.947.773 1.3 1.003.31.202.793.475 1.329.329l-.395-1.447c.163-.045.197.065-.115-.139-.27-.175-.628-.467-1.171-.909l-.948 1.163Zm2.234-.115.395 1.447a1.5 1.5 0 0 0 .72-.445l-1.115-1.002Zm.671-5.252c-.265.24-.499.453-.679.648-.19.205-.355.428-.465.71l1.397.545a.77.77 0 0 1 .17-.237c.126-.136.303-.299.587-.557l-1.01-1.11Zm.384 3.082c-.083-.374-.135-.61-.159-.793a.771.771 0 0 1-.002-.292l-1.456-.36a2.234 2.234 0 0 0-.029.849c.035.263.104.571.182.921l1.464-.325Zm-1.528-1.725a2.243 2.243 0 0 0-.09.28l1.457.36a.748.748 0 0 1 .03-.094l-1.397-.546Zm1.068-2.988c.755.067 1.237.113 1.556.188.34.08.2.128.145-.036l1.422-.478c-.211-.628-.793-.845-1.222-.946-.45-.106-1.063-.16-1.767-.222l-.134 1.494Zm1.447 2.411c.524-.476.98-.888 1.274-1.244.28-.34.613-.865.402-1.493l-1.422.478c-.055-.164.085-.21-.137.06-.209.253-.565.58-1.126 1.09l1.01 1.11ZM8.724 3.32c.16.402.302.755.45 1.037.155.296.346.568.638.785l.895-1.204c-.048-.035-.11-.097-.206-.28-.103-.197-.212-.466-.385-.896l-1.392.558Zm3.28.845c-.461-.04-.751-.068-.97-.11-.202-.04-.279-.081-.327-.117l-.895 1.204c.292.217.607.321.936.385.312.06.691.094 1.122.132l.134-1.494Zm-1.915-1.471c-.286-.713-.53-1.325-.773-1.749C9.09.55 8.696.016 8 .016v1.5c-.189 0-.18-.167.015.174.178.311.377.802.682 1.561l1.392-.558Zm-2.785.558c.305-.759.504-1.25.682-1.56.196-.342.204-.175.014-.175v-1.5c-.696 0-1.089.534-1.315.928-.244.424-.487 1.036-.773 1.749l1.392.558Z" fill="inherit"/></g></symbol><symbol id="segment" viewBox="0 0 14 12"><g><path d="M9.25 11.25h-9v-1.5h9v1.5Zm4.5-3H.25v-1.5h13.5v1.5Zm-4.5-3h-9v-1.5h9v1.5Zm4.5-3H.25V.75h13.5v1.5Z" fill="inherit"/></g></symbol><symbol id="plus-sm" viewBox="0 0 10 10"><g><path d="M5.665 5.665v4H4.332v-4h-4V4.332h4v-4h1.333v4h4v1.333h-4Z" fill="inherit"/></g></symbol><symbol id="checkbox" viewBox="0 0 16 16"><g><path fill-rule="evenodd" clip-rule="evenodd" d="M12 2H4a2 2 0 0 0-2 2v8a2 2 0 0 0 2 2h8a2 2 0 0 0 2-2V4a2 2 0 0 0-2-2ZM4 0a4 4 0 0 0-4 4v8a4 4 0 0 0 4 4h8a4 4 0 0 0 4-4V4a4 4 0 0 0-4-4H4Z" fill="inherit"/><path d="M4 6a2 2 0 0 1 2-2h4a2 2 0 0 1 2 2v4a2 2 0 0 1-2 2H6a2 2 0 0 1-2-2V6Z" fill="inherit"/></g></symbol><symbol id="checkbox-unchecked" viewBox="0 0 16 16"><g><path fill-rule="evenodd" clip-rule="evenodd" d="M12 2H4a2 2 0 0 0-2 2v8a2 2 0 0 0 2 2h8a2 2 0 0 0 2-2V4a2 2 0 0 0-2-2ZM4 0a4 4 0 0 0-4 4v8a4 4 0 0 0 4 4h8a4 4 0 0 0 4-4V4a4 4 0 0 0-4-4H4Z" fill="inherit"/></g></symbol><symbol id="check-list" viewBox="0 0 16 16"><g><path d="M16 12H4v-2h12v2ZM2 12H0v-2h2v2Zm14-5H4V5h12v2ZM2 7H0V5h2v2Zm14-5H4.023V0H16v2ZM2 2H0V0h2v2Z" fill="inherit"/></g></symbol><symbol id="clock" viewBox="0 0 20 20"><g><path d="M10 20C4.477 20 0 15.523 0 10S4.477 0 10 0s10 4.477 10 10c-.006 5.52-4.48 9.994-10 10Zm0-18a8 8 0 1 0 8 8 8.009 8.009 0 0 0-8-8Zm5 9H9V5h2v4h4v2Z" fill="inherit"/></g></symbol><symbol id="chat" viewBox="0 0 18 18"><g><path d="M6 6H4v2h2V6Z" fill="inherit"/><path d="M8 6h2v2H8V6Z" fill="inherit"/><path d="M14 6h-2v2h2V6Z" fill="inherit"/><path d="M0 2v16l4.8-3.6c.346-.26.767-.4 1.2-.4h10a2 2 0 0 0 2-2V2a2 2 0 0 0-2-2H2a2 2 0 0 0-2 2Zm2 12V2h14v10H5.334a1.984 1.984 0 0 0-1.2.4L2 14Z" fill="inherit"/></g></symbol><symbol id="tag" viewBox="0 0 11 10"><g><path d="M5.69 10c-.83 0-1.566-.11-2.21-.332A4.293 4.293 0 0 1 1.853 8.7 4.123 4.123 0 0 1 .847 7.144C.618 6.532.503 5.832.5 5.044c.003-.769.12-1.462.351-2.08.232-.62.57-1.15 1.014-1.59A4.462 4.462 0 0 1 3.495.355C4.137.118 4.867 0 5.685 0c.771 0 1.454.114 2.049.343a4.276 4.276 0 0 1 1.511.958 4 4 0 0 1 .935 1.428c.213.543.32 1.132.32 1.767 0 .44-.034.857-.103 1.25a3.373 3.373 0 0 1-.35 1.043 1.928 1.928 0 0 1-.668.725c-.281.178-.634.274-1.057.29a2.036 2.036 0 0 1-.699-.073 1.095 1.095 0 0 1-.485-.29.939.939 0 0 1-.23-.49h-.047c-.06.154-.174.296-.343.425a1.888 1.888 0 0 1-.615.297c-.245.07-.517.097-.817.085a2.339 2.339 0 0 1-.892-.217 2.2 2.2 0 0 1-.71-.548 2.551 2.551 0 0 1-.466-.856 3.622 3.622 0 0 1-.166-1.139c0-.414.06-.78.182-1.096a2.55 2.55 0 0 1 .485-.81c.205-.224.437-.4.694-.525a2.51 2.51 0 0 1 .798-.247c.284-.039.55-.035.8.011s.459.117.624.212c.169.096.274.2.316.313h.055v-.432h1.101v3.674c.003.193.05.349.142.467a.477.477 0 0 0 .395.178c.21 0 .38-.081.509-.244.132-.164.226-.416.284-.756.06-.342.09-.78.087-1.312a3.601 3.601 0 0 0-.178-1.189 2.964 2.964 0 0 0-.505-.942 2.887 2.887 0 0 0-.785-.675 3.654 3.654 0 0 0-1.01-.413 4.89 4.89 0 0 0-1.188-.139c-.645 0-1.212.096-1.701.29-.49.19-.9.461-1.231.814A3.5 3.5 0 0 0 1.98 3.43 4.881 4.881 0 0 0 1.73 5.03c0 .625.087 1.18.26 1.663.177.482.435.887.774 1.216.34.33.76.58 1.26.749.502.17 1.079.255 1.732.255.3 0 .593-.024.88-.07a7.702 7.702 0 0 0 1.302-.324l.335.98a3.711 3.711 0 0 1-.663.24A7.385 7.385 0 0 1 5.69 10Zm-.277-3.35c.334 0 .601-.063.801-.19.2-.128.344-.318.43-.57.087-.253.13-.566.127-.942 0-.35-.045-.637-.134-.86a.946.946 0 0 0-.43-.499c-.198-.108-.46-.162-.786-.162-.295 0-.546.066-.754.197a1.289 1.289 0 0 0-.473.544c-.108.23-.162.49-.162.784 0 .293.043.57.13.83.09.257.234.467.434.629.203.16.475.239.817.239Z" fill="inherit"/></g></symbol><symbol id="smile" viewBox="0 0 13 12"><g><path d="M6.501 11.835A5.833 5.833 0 1 1 12.335 6 5.84 5.84 0 0 1 6.5 11.835Zm0-10.5a4.667 4.667 0 1 0 0 9.333 4.667 4.667 0 0 0 0-9.333Zm0 8.166a2.822 2.822 0 0 1-2.333-1.166 3.675 3.675 0 0 1-.583-1.167h5.833v.005a3.747 3.747 0 0 1-.583 1.162A2.822 2.822 0 0 1 6.5 9.5Zm-2.041-3.5a.875.875 0 1 1 0-1.75.875.875 0 0 1 0 1.75Zm4.079-.008a.87.87 0 1 1 0-1.742.87.87 0 0 1 0 1.742Z" fill="inherit"/></g></symbol><symbol id="clip" viewBox="0 0 12 12" fill="none"><g><path d="m6.453 1.988-4.036 3.88c-.291.278-.522.61-.679.974a2.904 2.904 0 0 0 0 2.302c.157.364.388.696.679.975.29.28.635.5 1.015.652a3.24 3.24 0 0 0 2.395 0 3.14 3.14 0 0 0 1.015-.652l3.014-2.896" stroke="#d7d7d7" stroke-width="1.2" stroke-miterlimit="10" stroke-linecap="round"/><path d="M4.105 4.246 6.858 1.6c.198-.19.434-.342.693-.445a2.21 2.21 0 0 1 1.633 0c.259.103.494.254.692.445v0c.4.384.625.906.625 1.45 0 .543-.225 1.065-.625 1.45L7.121 7.145" stroke="#d7d7d7" stroke-width="1.2" stroke-miterlimit="10" stroke-linecap="round"/><path d="M6.868 4.281 4.024 7.014a1.082 1.082 0 0 0-.337.78c0 .293.121.574.337.78.106.103.233.185.372.24a1.188 1.188 0 0 0 1.252-.24L7.13 7.152" stroke="#d7d7d7" stroke-width="1.2" stroke-miterlimit="10" stroke-linecap="round"/></g></symbol><symbol id="clip-black" viewBox="0 0 12 12" fill="none"><g><path d="m6.453 1.988-4.036 3.88c-.291.278-.522.61-.679.974a2.904 2.904 0 0 0 0 2.302c.157.364.388.696.679.975.29.28.635.5 1.015.652a3.24 3.24 0 0 0 2.395 0 3.14 3.14 0 0 0 1.015-.652l3.014-2.896" stroke="#252733" stroke-width="1.2" stroke-miterlimit="10" stroke-linecap="round"/><path d="M4.105 4.246 6.858 1.6c.198-.19.434-.342.693-.445a2.21 2.21 0 0 1 1.633 0c.259.103.494.254.692.445v0c.4.384.625.906.625 1.45 0 .543-.225 1.065-.625 1.45L7.121 7.145" stroke="#252733" stroke-width="1.2" stroke-miterlimit="10" stroke-linecap="round"/><path d="M6.868 4.281 4.024 7.014a1.082 1.082 0 0 0-.337.78c0 .293.121.574.337.78.106.103.233.185.372.24a1.188 1.188 0 0 0 1.252-.24L7.13 7.152" stroke="#252733" stroke-width="1.2" stroke-miterlimit="10" stroke-linecap="round"/></g></symbol><symbol id="yandex-logo" viewBox="0 0 65 25"><g><path d="M61.017 15.674c1.255 0 2.145-.221 2.808-.697v-2.156c-.68.458-1.5.747-2.651.747-1.936 0-2.738-1.46-2.738-3.77 0-2.428.977-3.668 2.755-3.668 1.047 0 2.075.357 2.616.697V4.585c-.575-.306-1.57-.526-2.93-.526-3.47 0-5.266 2.428-5.266 5.824.017 3.719 1.779 5.79 5.406 5.79Zm-16.968-.985v-2.157c-.837.56-2.267 1.053-3.575 1.053-1.988 0-2.738-.917-2.86-2.785h6.557V9.408c0-3.889-1.761-5.35-4.464-5.35-3.313 0-4.883 2.463-4.883 5.842 0 3.889 1.97 5.774 5.424 5.774 1.726 0 2.999-.459 3.801-.985ZM19.164 4.262v4.415h-3.627V4.262h-2.72v11.19h2.72v-4.669h3.627v4.67h2.72V4.263h-2.72Zm14.98 9.085H32.94V4.262h-7.918v.951c0 2.734-.174 6.266-1.133 8.134h-.872V18h2.511v-2.547h6.086V18h2.512v-4.653h.017Zm18.572 2.106h3.087l-4.36-6.028 3.837-5.163h-2.738l-3.837 5.163V4.262h-2.72v11.19h2.72v-5.5l4.011 5.5ZM39.637 6.13c1.343 0 1.761 1.087 1.761 2.497v.22h-3.784c.07-1.783.733-2.717 2.023-2.717Zm-9.417 7.217h-3.836c.75-1.68.959-4.737.959-6.673v-.34h2.877v7.013Z" fill="#252733"/><path d="M10.55 15.453H7.778V2.089H6.54c-2.268 0-3.453 1.103-3.453 2.75 0 1.869.82 2.735 2.51 3.838l1.396.917-4.011 5.859H0l3.61-5.23C1.535 8.779.366 7.37.366 4.993.366 2.02 2.494 0 6.522 0h4.011v15.453h.017Z" fill="#FC3F1D"/></g></symbol><symbol id="chevron-left" viewBox="0 0 8 14"><g><path d="m.288 7 6.01 6.01 1.414-1.414-4.6-4.6 4.6-4.6L6.298.99.288 7Z" fill="inherit"/></g></symbol><symbol id="chevron-right" viewBox="0 0 8 14"><g><path d="M7.713 7 1.702.99.288 2.404l4.6 4.6-4.6 4.593 1.414 1.414L7.713 7Z" fill="inherit"/></g></symbol><symbol id="gantt-sidebar-arrow" viewBox="0 0 24 10"><g><path d="m16.17 4-2.58-2.59L15 0l5 5-5 5-1.41-1.41L16.17 6H0V4h16.17Z" fill="#389393"/></g></symbol><symbol id="plus-gantt-sidebar" viewBox="0 0 15 15"><path d="M8.5 8.5v6h-2v-6h-6v-2h6v-6h2v6h6v2h-6Z" fill="#389393"/></symbol><symbol id="filter-gantt-sidebar" viewBox="0 0 13 13"><path d="M11.937.5H1.063c-.5 0-.752.606-.398.96L5 5.795v4.83c0 .184.09.355.24.46l1.875 1.313A.563.563 0 0 0 8 11.937V5.795l4.335-4.335a.563.563 0 0 0-.398-.96Z" fill="#252733"/></symbol><symbol id="arrow-down" viewBox="0 0 14 10"><path d="M4 4.27 7.332.728H.666L3.999 4.27Z" fill="#252733"/></symbol><symbol id="bound" viewBox="0 0 20 20"><path d="M4 20a4 4 0 1 1 2.032-7.446l6.522-6.522a3.995 3.995 0 1 1 1.414 1.415l-6.521 6.521A4 4 0 0 1 4 20Zm0-6a2 2 0 1 0 0 4 2 2 0 0 0 0-4ZM16 2a2 2 0 1 0 2 2.09v.4V4a2 2 0 0 0-2-2Z" fill="inherit"/></symbol><symbol id="plus-with-bgc" viewBox="0 0 35 35"><rect width="35" height="35" rx="10" fill="#389393" fill-opacity="0.2"/><path d="M18.5 18.5v6h-2v-6h-6v-2h6v-6h2v6h6v2h-6Z" fill="#389393"/></symbol><symbol id="arrow_dense-left" viewBox="0 0 6 10"><g><path d="m.5 5 5 5V0l-5 5Z" fill="inherit"/></g></symbol><symbol id="arrow_dense-right" viewBox="0 0 6 10"><g><path d="m5.5 5-5-5v10l5-5Z" fill="inherit"/></g></symbol><symbol id="arrow_long_right_up" viewBox="0 0 14 14"><g><path d="M11.979 3.45 11.986 7H14V0H7v2.014l3.55.007L0 12.571 1.429 14l10.55-10.55Z" fill="inherit"/></g></symbol><symbol id="deadline" viewBox="0 0 18 18"><g><path d="M16 18H2a2 2 0 0 1-2-2V2a2 2 0 0 1 2-2h14a2 2 0 0 1 2 2v14a2 2 0 0 1-2 2ZM2 2v14h14V2H2Zm12 12h-2V7h2v7Zm-4 0H8V4h2v10Zm-4 0H4V9h2v5Z" fill="inherit"/></g></symbol><symbol id="check-mark" viewBox="0 0 20 16"><g><path d="M6.818 15.779.454 9.415l2.83-2.83 3.534 3.544L16.716.221l2.83 2.83L6.818 15.78Z" fill="inherit"/></g></symbol><symbol id="checkbox__circle-checked" viewBox="0 0 24 24"><g><circle cx="12" cy="12" r="4" fill="inherit"/><circle cx="12" cy="12" r="7" stroke="#252733" stroke-width="2"/></g></symbol><symbol id="checkbox__circle-unchecked" viewBox="0 0 24 24" fill="none"><g><circle cx="12" cy="12" r="4" fill="transparent"/><circle cx="12" cy="12" r="7" stroke="#252733" stroke-width="2"/></g></symbol><symbol id="flag_nonefill" viewBox="0 0 24 24"><g><path d="M5.5 20.5a1 1 0 0 1-1-1v-15a1 1 0 0 1 1-1h6.38a1 1 0 0 1 .9.55l.72 1.45h5a1 1 0 0 1 1 1v8a1 1 0 0 1-1 1h-5.39a1 1 0 0 1-.89-.55l-.72-1.45h-5v6a1 1 0 0 1-1 1Zm1-15v6h6l1 2h4v-6h-5l-1-2h-5Z" fill="inherit"/></g></symbol><symbol id="plus_square_angle" viewBox="0 0 24 24"><g><path d="M16 22H4a2 2 0 0 1-2-2V8h2v12h12v2Zm4-4H8a2 2 0 0 1-2-2V4a2 2 0 0 1 2-2h12a2 2 0 0 1 2 2v12a2 2 0 0 1-2 2ZM8 4v12h12V4H8Zm7 10h-2v-3h-3V9h3V6h2v3h3v2h-3v3Z" fill="inherit"/></g></symbol><symbol id="house_square" viewBox="0 0 24 24"><g><path d="M20 21H4a1 1 0 0 1-1-1v-7.3a1 1 0 0 1 .341-.752L5 10.5V4a1 1 0 0 1 1-1h14a1 1 0 0 1 1 1v16a1 1 0 0 1-1 1ZM9 7.329a1 1 0 0 1 .658.248l5 4.375A1 1 0 0 1 15 12.7V19h4V5H7v3.75l1.341-1.174A1 1 0 0 1 9 7.329ZM8 16h2v3h3v-5.843l-4-3.5-4 3.5V19h3v-3Z" fill="inherit"/></g></symbol><symbol id="warning__fill" viewBox="0 0 24 24"><g><path d="M12 22C6.477 22 2 17.523 2 12S6.477 2 12 2s10 4.477 10 10c-.006 5.52-4.48 9.994-10 10Zm-1-7v2h2v-2h-2Zm0-8v6h2V7h-2Z" fill="inherit"/></g></symbol></svg>